<?xml version="1.0" encoding="utf-8" standalone="no"?>
<!DOCTYPE svg PUBLIC "-//W3C//DTD SVG 1.1//EN"
  "http://www.w3.org/Graphics/SVG/1.1/DTD/svg11.dtd">
<svg xmlns:xlink="http://www.w3.org/1999/xlink" width="590.4pt" height="280.8pt" viewBox="0 0 590.4 280.8" xmlns="http://www.w3.org/2000/svg" version="1.1">
 <metadata>
  <rdf:RDF xmlns:dc="http://purl.org/dc/elements/1.1/" xmlns:cc="http://creativecommons.org/ns#" xmlns:rdf="http://www.w3.org/1999/02/22-rdf-syntax-ns#">
   <cc:Work>
    <dc:type rdf:resource="http://purl.org/dc/dcmitype/StillImage"/>
    <dc:date>2026-08-08T15:31:33.887778</dc:date>
    <dc:format>image/svg+xml</dc:format>
    <dc:creator>
     <cc:Agent>
      <dc:title>Matplotlib v3.11.1, https://matplotlib.org/</dc:title>
     </cc:Agent>
    </dc:creator>
   </cc:Work>
  </rdf:RDF>
 </metadata>
 <defs>
  <style type="text/css">*{stroke-linejoin: round; stroke-linecap: butt}</style>
 </defs>
 <g id="figure_1">
  <g id="patch_1">
   <path d="M 0 280.8 
L 590.4 280.8 
L 590.4 0 
L 0 0 
z
" style="fill: #ffffff"/>
  </g>
  <g id="axes_1">
   <g id="patch_2">
    <path d="M 53.136 244.296 
L 531.36 244.296 
L 531.36 67.392 
L 53.136 67.392 
z
" style="fill: #ffffff"/>
   </g>
   <g id="matplotlib.axis_1">
    <g id="xtick_1">
     <g id="line2d_1"/>
     <g id="text_1">
      <!-- 1 -->
      <g style="fill: #6b7684" transform="translate(72.01033 254.633891) scale(0.09 -0.09)">
       <defs>
        <path id="DejaVuSans-14" d="M 794 531 
L 1825 531 
L 1825 4091 
L 703 3866 
L 703 4441 
L 1819 4666 
L 2450 4666 
L 2450 531 
L 3481 531 
L 3481 0 
L 794 0 
L 794 531 
z
" transform="scale(0.015625)"/>
       </defs>
       <use xlink:href="#DejaVuSans-14"/>
      </g>
     </g>
    </g>
    <g id="xtick_2">
     <g id="line2d_2"/>
     <g id="text_2">
      <!-- 2 -->
      <g style="fill: #6b7684" transform="translate(134.117343 254.633891) scale(0.09 -0.09)">
       <defs>
        <path id="DejaVuSans-15" d="M 1228 531 
L 3431 531 
L 3431 0 
L 469 0 
L 469 531 
Q 828 903 1448 1529 
Q 2069 2156 2228 2338 
Q 2531 2678 2651 2914 
Q 2772 3150 2772 3378 
Q 2772 3750 2511 3984 
Q 2250 4219 1831 4219 
Q 1534 4219 1204 4116 
Q 875 4013 500 3803 
L 500 4441 
Q 881 4594 1212 4672 
Q 1544 4750 1819 4750 
Q 2544 4750 2975 4387 
Q 3406 4025 3406 3419 
Q 3406 3131 3298 2873 
Q 3191 2616 2906 2266 
Q 2828 2175 2409 1742 
Q 1991 1309 1228 531 
z
" transform="scale(0.015625)"/>
       </defs>
       <use xlink:href="#DejaVuSans-15"/>
      </g>
     </g>
    </g>
    <g id="xtick_3">
     <g id="line2d_3"/>
     <g id="text_3">
      <!-- 4 -->
      <g style="fill: #6b7684" transform="translate(258.331369 254.633891) scale(0.09 -0.09)">
       <defs>
        <path id="DejaVuSans-17" d="M 2419 4116 
L 825 1625 
L 2419 1625 
L 2419 4116 
z
M 2253 4666 
L 3047 4666 
L 3047 1625 
L 3713 1625 
L 3713 1100 
L 3047 1100 
L 3047 0 
L 2419 0 
L 2419 1100 
L 313 1100 
L 313 1709 
L 2253 4666 
z
" transform="scale(0.015625)"/>
       </defs>
       <use xlink:href="#DejaVuSans-17"/>
      </g>
     </g>
    </g>
    <g id="xtick_4">
     <g id="line2d_4"/>
     <g id="text_4">
      <!-- 8 -->
      <g style="fill: #6b7684" transform="translate(506.75942 254.633891) scale(0.09 -0.09)">
       <defs>
        <path id="DejaVuSans-1b" d="M 2034 2216 
Q 1584 2216 1326 1975 
Q 1069 1734 1069 1313 
Q 1069 891 1326 650 
Q 1584 409 2034 409 
Q 2484 409 2743 651 
Q 3003 894 3003 1313 
Q 3003 1734 2745 1975 
Q 2488 2216 2034 2216 
z
M 1403 2484 
Q 997 2584 770 2862 
Q 544 3141 544 3541 
Q 544 4100 942 4425 
Q 1341 4750 2034 4750 
Q 2731 4750 3128 4425 
Q 3525 4100 3525 3541 
Q 3525 3141 3298 2862 
Q 3072 2584 2669 2484 
Q 3125 2378 3379 2068 
Q 3634 1759 3634 1313 
Q 3634 634 3220 271 
Q 2806 -91 2034 -91 
Q 1263 -91 848 271 
Q 434 634 434 1313 
Q 434 1759 690 2068 
Q 947 2378 1403 2484 
z
M 1172 3481 
Q 1172 3119 1398 2916 
Q 1625 2713 2034 2713 
Q 2441 2713 2670 2916 
Q 2900 3119 2900 3481 
Q 2900 3844 2670 4047 
Q 2441 4250 2034 4250 
Q 1625 4250 1398 4047 
Q 1172 3844 1172 3481 
z
" transform="scale(0.015625)"/>
       </defs>
       <use xlink:href="#DejaVuSans-1b"/>
      </g>
     </g>
    </g>
    <g id="text_5">
     <!-- concurrent workers, 2,000-row calls -->
     <g style="fill: #6b7684" transform="translate(217.121813 267.178688) scale(0.084 -0.084)">
      <defs>
       <path id="DejaVuSans-46" d="M 3122 3366 
L 3122 2828 
Q 2878 2963 2633 3030 
Q 2388 3097 2138 3097 
Q 1578 3097 1268 2742 
Q 959 2388 959 1747 
Q 959 1106 1268 751 
Q 1578 397 2138 397 
Q 2388 397 2633 464 
Q 2878 531 3122 666 
L 3122 134 
Q 2881 22 2623 -34 
Q 2366 -91 2075 -91 
Q 1284 -91 818 406 
Q 353 903 353 1747 
Q 353 2603 823 3093 
Q 1294 3584 2113 3584 
Q 2378 3584 2631 3529 
Q 2884 3475 3122 3366 
z
" transform="scale(0.015625)"/>
       <path id="DejaVuSans-52" d="M 1959 3097 
Q 1497 3097 1228 2736 
Q 959 2375 959 1747 
Q 959 1119 1226 758 
Q 1494 397 1959 397 
Q 2419 397 2687 759 
Q 2956 1122 2956 1747 
Q 2956 2369 2687 2733 
Q 2419 3097 1959 3097 
z
M 1959 3584 
Q 2709 3584 3137 3096 
Q 3566 2609 3566 1747 
Q 3566 888 3137 398 
Q 2709 -91 1959 -91 
Q 1206 -91 779 398 
Q 353 888 353 1747 
Q 353 2609 779 3096 
Q 1206 3584 1959 3584 
z
" transform="scale(0.015625)"/>
       <path id="DejaVuSans-51" d="M 3513 2113 
L 3513 0 
L 2938 0 
L 2938 2094 
Q 2938 2591 2744 2837 
Q 2550 3084 2163 3084 
Q 1697 3084 1428 2787 
Q 1159 2491 1159 1978 
L 1159 0 
L 581 0 
L 581 3500 
L 1159 3500 
L 1159 2956 
Q 1366 3272 1645 3428 
Q 1925 3584 2291 3584 
Q 2894 3584 3203 3211 
Q 3513 2838 3513 2113 
z
" transform="scale(0.015625)"/>
       <path id="DejaVuSans-58" d="M 544 1381 
L 544 3500 
L 1119 3500 
L 1119 1403 
Q 1119 906 1312 657 
Q 1506 409 1894 409 
Q 2359 409 2629 706 
Q 2900 1003 2900 1516 
L 2900 3500 
L 3475 3500 
L 3475 0 
L 2900 0 
L 2900 538 
Q 2691 219 2414 64 
Q 2138 -91 1772 -91 
Q 1169 -91 856 284 
Q 544 659 544 1381 
z
M 1991 3584 
L 1991 3584 
z
" transform="scale(0.015625)"/>
       <path id="DejaVuSans-55" d="M 2631 2963 
Q 2534 3019 2420 3045 
Q 2306 3072 2169 3072 
Q 1681 3072 1420 2755 
Q 1159 2438 1159 1844 
L 1159 0 
L 581 0 
L 581 3500 
L 1159 3500 
L 1159 2956 
Q 1341 3275 1631 3429 
Q 1922 3584 2338 3584 
Q 2397 3584 2469 3576 
Q 2541 3569 2628 3553 
L 2631 2963 
z
" transform="scale(0.015625)"/>
       <path id="DejaVuSans-48" d="M 3597 1894 
L 3597 1613 
L 953 1613 
Q 991 1019 1311 708 
Q 1631 397 2203 397 
Q 2534 397 2845 478 
Q 3156 559 3463 722 
L 3463 178 
Q 3153 47 2828 -22 
Q 2503 -91 2169 -91 
Q 1331 -91 842 396 
Q 353 884 353 1716 
Q 353 2575 817 3079 
Q 1281 3584 2069 3584 
Q 2775 3584 3186 3129 
Q 3597 2675 3597 1894 
z
M 3022 2063 
Q 3016 2534 2758 2815 
Q 2500 3097 2075 3097 
Q 1594 3097 1305 2825 
Q 1016 2553 972 2059 
L 3022 2063 
z
" transform="scale(0.015625)"/>
       <path id="DejaVuSans-57" d="M 1172 4494 
L 1172 3500 
L 2356 3500 
L 2356 3053 
L 1172 3053 
L 1172 1153 
Q 1172 725 1289 603 
Q 1406 481 1766 481 
L 2356 481 
L 2356 0 
L 1766 0 
Q 1100 0 847 248 
Q 594 497 594 1153 
L 594 3053 
L 172 3053 
L 172 3500 
L 594 3500 
L 594 4494 
L 1172 4494 
z
" transform="scale(0.015625)"/>
       <path id="DejaVuSans-3" transform="scale(0.015625)"/>
       <path id="DejaVuSans-5a" d="M 269 3500 
L 844 3500 
L 1563 769 
L 2278 3500 
L 2956 3500 
L 3675 769 
L 4391 3500 
L 4966 3500 
L 4050 0 
L 3372 0 
L 2619 2869 
L 1863 0 
L 1184 0 
L 269 3500 
z
" transform="scale(0.015625)"/>
       <path id="DejaVuSans-4e" d="M 581 4863 
L 1159 4863 
L 1159 1991 
L 2875 3500 
L 3609 3500 
L 1753 1863 
L 3688 0 
L 2938 0 
L 1159 1709 
L 1159 0 
L 581 0 
L 581 4863 
z
" transform="scale(0.015625)"/>
       <path id="DejaVuSans-56" d="M 2834 3397 
L 2834 2853 
Q 2591 2978 2328 3040 
Q 2066 3103 1784 3103 
Q 1356 3103 1142 2972 
Q 928 2841 928 2578 
Q 928 2378 1081 2264 
Q 1234 2150 1697 2047 
L 1894 2003 
Q 2506 1872 2764 1633 
Q 3022 1394 3022 966 
Q 3022 478 2636 193 
Q 2250 -91 1575 -91 
Q 1294 -91 989 -36 
Q 684 19 347 128 
L 347 722 
Q 666 556 975 473 
Q 1284 391 1588 391 
Q 1994 391 2212 530 
Q 2431 669 2431 922 
Q 2431 1156 2273 1281 
Q 2116 1406 1581 1522 
L 1381 1569 
Q 847 1681 609 1914 
Q 372 2147 372 2553 
Q 372 3047 722 3315 
Q 1072 3584 1716 3584 
Q 2034 3584 2315 3537 
Q 2597 3491 2834 3397 
z
" transform="scale(0.015625)"/>
       <path id="DejaVuSans-f" d="M 750 794 
L 1409 794 
L 1409 256 
L 897 -744 
L 494 -744 
L 750 256 
L 750 794 
z
" transform="scale(0.015625)"/>
       <path id="DejaVuSans-13" d="M 2034 4250 
Q 1547 4250 1301 3770 
Q 1056 3291 1056 2328 
Q 1056 1369 1301 889 
Q 1547 409 2034 409 
Q 2525 409 2770 889 
Q 3016 1369 3016 2328 
Q 3016 3291 2770 3770 
Q 2525 4250 2034 4250 
z
M 2034 4750 
Q 2819 4750 3233 4129 
Q 3647 3509 3647 2328 
Q 3647 1150 3233 529 
Q 2819 -91 2034 -91 
Q 1250 -91 836 529 
Q 422 1150 422 2328 
Q 422 3509 836 4129 
Q 1250 4750 2034 4750 
z
" transform="scale(0.015625)"/>
       <path id="DejaVuSans-10" d="M 313 2009 
L 1997 2009 
L 1997 1497 
L 313 1497 
L 313 2009 
z
" transform="scale(0.015625)"/>
       <path id="DejaVuSans-44" d="M 2194 1759 
Q 1497 1759 1228 1600 
Q 959 1441 959 1056 
Q 959 750 1161 570 
Q 1363 391 1709 391 
Q 2188 391 2477 730 
Q 2766 1069 2766 1631 
L 2766 1759 
L 2194 1759 
z
M 3341 1997 
L 3341 0 
L 2766 0 
L 2766 531 
Q 2569 213 2275 61 
Q 1981 -91 1556 -91 
Q 1019 -91 701 211 
Q 384 513 384 1019 
Q 384 1609 779 1909 
Q 1175 2209 1959 2209 
L 2766 2209 
L 2766 2266 
Q 2766 2663 2505 2880 
Q 2244 3097 1772 3097 
Q 1472 3097 1187 3025 
Q 903 2953 641 2809 
L 641 3341 
Q 956 3463 1253 3523 
Q 1550 3584 1831 3584 
Q 2591 3584 2966 3190 
Q 3341 2797 3341 1997 
z
" transform="scale(0.015625)"/>
       <path id="DejaVuSans-4f" d="M 603 4863 
L 1178 4863 
L 1178 0 
L 603 0 
L 603 4863 
z
" transform="scale(0.015625)"/>
      </defs>
      <use xlink:href="#DejaVuSans-46"/>
      <use xlink:href="#DejaVuSans-52" transform="translate(54.984375 0)"/>
      <use xlink:href="#DejaVuSans-51" transform="translate(116.171875 0)"/>
      <use xlink:href="#DejaVuSans-46" transform="translate(179.546875 0)"/>
      <use xlink:href="#DejaVuSans-58" transform="translate(234.53125 0)"/>
      <use xlink:href="#DejaVuSans-55" transform="translate(297.90625 0)"/>
      <use xlink:href="#DejaVuSans-55" transform="translate(337.265625 0)"/>
      <use xlink:href="#DejaVuSans-48" transform="translate(376.171875 0)"/>
      <use xlink:href="#DejaVuSans-51" transform="translate(437.703125 0)"/>
      <use xlink:href="#DejaVuSans-57" transform="translate(501.078125 0)"/>
      <use xlink:href="#DejaVuSans-3" transform="translate(540.28125 0)"/>
      <use xlink:href="#DejaVuSans-5a" transform="translate(572.0625 0)"/>
      <use xlink:href="#DejaVuSans-52" transform="translate(653.84375 0)"/>
      <use xlink:href="#DejaVuSans-55" transform="translate(715.03125 0)"/>
      <use xlink:href="#DejaVuSans-4e" transform="translate(756.140625 0)"/>
      <use xlink:href="#DejaVuSans-48" transform="translate(810.484375 0)"/>
      <use xlink:href="#DejaVuSans-55" transform="translate(872.015625 0)"/>
      <use xlink:href="#DejaVuSans-56" transform="translate(913.125 0)"/>
      <use xlink:href="#DejaVuSans-f" transform="translate(965.21875 0)"/>
      <use xlink:href="#DejaVuSans-3" transform="translate(997 0)"/>
      <use xlink:href="#DejaVuSans-15" transform="translate(1028.78125 0)"/>
      <use xlink:href="#DejaVuSans-f" transform="translate(1092.40625 0)"/>
      <use xlink:href="#DejaVuSans-13" transform="translate(1124.1875 0)"/>
      <use xlink:href="#DejaVuSans-13" transform="translate(1187.8125 0)"/>
      <use xlink:href="#DejaVuSans-13" transform="translate(1251.4375 0)"/>
      <use xlink:href="#DejaVuSans-10" transform="translate(1315.0625 0)"/>
      <use xlink:href="#DejaVuSans-55" transform="translate(1351.140625 0)"/>
      <use xlink:href="#DejaVuSans-52" transform="translate(1390.046875 0)"/>
      <use xlink:href="#DejaVuSans-5a" transform="translate(1451.234375 0)"/>
      <use xlink:href="#DejaVuSans-3" transform="translate(1533.015625 0)"/>
      <use xlink:href="#DejaVuSans-46" transform="translate(1564.796875 0)"/>
      <use xlink:href="#DejaVuSans-44" transform="translate(1619.78125 0)"/>
      <use xlink:href="#DejaVuSans-4f" transform="translate(1681.0625 0)"/>
      <use xlink:href="#DejaVuSans-4f" transform="translate(1708.84375 0)"/>
      <use xlink:href="#DejaVuSans-56" transform="translate(1736.625 0)"/>
     </g>
    </g>
   </g>
   <g id="matplotlib.axis_2">
    <g id="ytick_1">
     <g id="line2d_5">
      <path d="M 53.136 211.861002 
L 531.36 211.861002 
" clip-path="url(#pd552d07f7e)" style="fill: none; stroke: #e5e8ec; stroke-width: 0.7; stroke-linecap: square"/>
     </g>
     <g id="line2d_6"/>
     <g id="text_6">
      <!-- $\mathdefault{10^{1}}$ -->
      <g style="fill: #6b7684" transform="translate(33.796 216.046002) scale(0.09 -0.09)">
       <use xlink:href="#DejaVuSans-14" transform="translate(0 0.665625)"/>
       <use xlink:href="#DejaVuSans-13" transform="translate(63.623047 0.665625)"/>
       <use xlink:href="#DejaVuSans-14" transform="translate(128.203125 41.965625) scale(0.7)"/>
      </g>
     </g>
    </g>
    <g id="ytick_2">
     <g id="line2d_7">
      <path d="M 53.136 139.527499 
L 531.36 139.527499 
" clip-path="url(#pd552d07f7e)" style="fill: none; stroke: #e5e8ec; stroke-width: 0.7; stroke-linecap: square"/>
     </g>
     <g id="line2d_8"/>
     <g id="text_7">
      <!-- $\mathdefault{10^{2}}$ -->
      <g style="fill: #6b7684" transform="translate(33.796 143.757499) scale(0.09 -0.09)">
       <use xlink:href="#DejaVuSans-14" transform="translate(0 0.746875)"/>
       <use xlink:href="#DejaVuSans-13" transform="translate(63.623047 0.746875)"/>
       <use xlink:href="#DejaVuSans-15" transform="translate(128.203125 42.046875) scale(0.7)"/>
      </g>
     </g>
    </g>
    <g id="ytick_3">
     <g id="line2d_9">
      <defs>
       <path id="macd50f757f" d="M 0 0 
L -2 0 
" style="stroke: #000000; stroke-width: 0.6"/>
      </defs>
      <g>
       <use xlink:href="#macd50f757f" x="53.136" y="240.645396" style="stroke: #000000; stroke-width: 0.6"/>
      </g>
     </g>
    </g>
    <g id="ytick_4">
     <g id="line2d_10">
      <g>
       <use xlink:href="#macd50f757f" x="53.136" y="233.635556" style="stroke: #000000; stroke-width: 0.6"/>
      </g>
     </g>
    </g>
    <g id="ytick_5">
     <g id="line2d_11">
      <g>
       <use xlink:href="#macd50f757f" x="53.136" y="227.908099" style="stroke: #000000; stroke-width: 0.6"/>
      </g>
     </g>
    </g>
    <g id="ytick_6">
     <g id="line2d_12">
      <g>
       <use xlink:href="#macd50f757f" x="53.136" y="223.065603" style="stroke: #000000; stroke-width: 0.6"/>
      </g>
     </g>
    </g>
    <g id="ytick_7">
     <g id="line2d_13">
      <g>
       <use xlink:href="#macd50f757f" x="53.136" y="218.870842" style="stroke: #000000; stroke-width: 0.6"/>
      </g>
     </g>
    </g>
    <g id="ytick_8">
     <g id="line2d_14">
      <g>
       <use xlink:href="#macd50f757f" x="53.136" y="215.170801" style="stroke: #000000; stroke-width: 0.6"/>
      </g>
     </g>
    </g>
    <g id="ytick_9">
     <g id="line2d_15">
      <g>
       <use xlink:href="#macd50f757f" x="53.136" y="190.086448" style="stroke: #000000; stroke-width: 0.6"/>
      </g>
     </g>
    </g>
    <g id="ytick_10">
     <g id="line2d_16">
      <g>
       <use xlink:href="#macd50f757f" x="53.136" y="177.34915" style="stroke: #000000; stroke-width: 0.6"/>
      </g>
     </g>
    </g>
    <g id="ytick_11">
     <g id="line2d_17">
      <g>
       <use xlink:href="#macd50f757f" x="53.136" y="168.311894" style="stroke: #000000; stroke-width: 0.6"/>
      </g>
     </g>
    </g>
    <g id="ytick_12">
     <g id="line2d_18">
      <g>
       <use xlink:href="#macd50f757f" x="53.136" y="161.302053" style="stroke: #000000; stroke-width: 0.6"/>
      </g>
     </g>
    </g>
    <g id="ytick_13">
     <g id="line2d_19">
      <g>
       <use xlink:href="#macd50f757f" x="53.136" y="155.574596" style="stroke: #000000; stroke-width: 0.6"/>
      </g>
     </g>
    </g>
    <g id="ytick_14">
     <g id="line2d_20">
      <g>
       <use xlink:href="#macd50f757f" x="53.136" y="150.7321" style="stroke: #000000; stroke-width: 0.6"/>
      </g>
     </g>
    </g>
    <g id="ytick_15">
     <g id="line2d_21">
      <g>
       <use xlink:href="#macd50f757f" x="53.136" y="146.53734" style="stroke: #000000; stroke-width: 0.6"/>
      </g>
     </g>
    </g>
    <g id="ytick_16">
     <g id="line2d_22">
      <g>
       <use xlink:href="#macd50f757f" x="53.136" y="142.837299" style="stroke: #000000; stroke-width: 0.6"/>
      </g>
     </g>
    </g>
    <g id="ytick_17">
     <g id="line2d_23">
      <g>
       <use xlink:href="#macd50f757f" x="53.136" y="117.752945" style="stroke: #000000; stroke-width: 0.6"/>
      </g>
     </g>
    </g>
    <g id="ytick_18">
     <g id="line2d_24">
      <g>
       <use xlink:href="#macd50f757f" x="53.136" y="105.015647" style="stroke: #000000; stroke-width: 0.6"/>
      </g>
     </g>
    </g>
    <g id="ytick_19">
     <g id="line2d_25">
      <g>
       <use xlink:href="#macd50f757f" x="53.136" y="95.978391" style="stroke: #000000; stroke-width: 0.6"/>
      </g>
     </g>
    </g>
    <g id="ytick_20">
     <g id="line2d_26">
      <g>
       <use xlink:href="#macd50f757f" x="53.136" y="88.96855" style="stroke: #000000; stroke-width: 0.6"/>
      </g>
     </g>
    </g>
    <g id="ytick_21">
     <g id="line2d_27">
      <g>
       <use xlink:href="#macd50f757f" x="53.136" y="83.241093" style="stroke: #000000; stroke-width: 0.6"/>
      </g>
     </g>
    </g>
    <g id="ytick_22">
     <g id="line2d_28">
      <g>
       <use xlink:href="#macd50f757f" x="53.136" y="78.398598" style="stroke: #000000; stroke-width: 0.6"/>
      </g>
     </g>
    </g>
    <g id="ytick_23">
     <g id="line2d_29">
      <g>
       <use xlink:href="#macd50f757f" x="53.136" y="74.203837" style="stroke: #000000; stroke-width: 0.6"/>
      </g>
     </g>
    </g>
    <g id="ytick_24">
     <g id="line2d_30">
      <g>
       <use xlink:href="#macd50f757f" x="53.136" y="70.503796" style="stroke: #000000; stroke-width: 0.6"/>
      </g>
     </g>
    </g>
    <g id="text_8">
     <!-- tool-call p50, ms (log) -->
     <g style="fill: #6b7684" transform="translate(27.778031 201.838594) rotate(-90) scale(0.084 -0.084)">
      <defs>
       <path id="DejaVuSans-53" d="M 1159 525 
L 1159 -1331 
L 581 -1331 
L 581 3500 
L 1159 3500 
L 1159 2969 
Q 1341 3281 1617 3432 
Q 1894 3584 2278 3584 
Q 2916 3584 3314 3078 
Q 3713 2572 3713 1747 
Q 3713 922 3314 415 
Q 2916 -91 2278 -91 
Q 1894 -91 1617 61 
Q 1341 213 1159 525 
z
M 3116 1747 
Q 3116 2381 2855 2742 
Q 2594 3103 2138 3103 
Q 1681 3103 1420 2742 
Q 1159 2381 1159 1747 
Q 1159 1113 1420 752 
Q 1681 391 2138 391 
Q 2594 391 2855 752 
Q 3116 1113 3116 1747 
z
" transform="scale(0.015625)"/>
       <path id="DejaVuSans-18" d="M 691 4666 
L 3169 4666 
L 3169 4134 
L 1269 4134 
L 1269 2991 
Q 1406 3038 1543 3061 
Q 1681 3084 1819 3084 
Q 2600 3084 3056 2656 
Q 3513 2228 3513 1497 
Q 3513 744 3044 326 
Q 2575 -91 1722 -91 
Q 1428 -91 1123 -41 
Q 819 9 494 109 
L 494 744 
Q 775 591 1075 516 
Q 1375 441 1709 441 
Q 2250 441 2565 725 
Q 2881 1009 2881 1497 
Q 2881 1984 2565 2268 
Q 2250 2553 1709 2553 
Q 1456 2553 1204 2497 
Q 953 2441 691 2322 
L 691 4666 
z
" transform="scale(0.015625)"/>
       <path id="DejaVuSans-50" d="M 3328 2828 
Q 3544 3216 3844 3400 
Q 4144 3584 4550 3584 
Q 5097 3584 5394 3201 
Q 5691 2819 5691 2113 
L 5691 0 
L 5113 0 
L 5113 2094 
Q 5113 2597 4934 2840 
Q 4756 3084 4391 3084 
Q 3944 3084 3684 2787 
Q 3425 2491 3425 1978 
L 3425 0 
L 2847 0 
L 2847 2094 
Q 2847 2600 2669 2842 
Q 2491 3084 2119 3084 
Q 1678 3084 1418 2786 
Q 1159 2488 1159 1978 
L 1159 0 
L 581 0 
L 581 3500 
L 1159 3500 
L 1159 2956 
Q 1356 3278 1631 3431 
Q 1906 3584 2284 3584 
Q 2666 3584 2933 3390 
Q 3200 3197 3328 2828 
z
" transform="scale(0.015625)"/>
       <path id="DejaVuSans-b" d="M 1984 4856 
Q 1566 4138 1362 3434 
Q 1159 2731 1159 2009 
Q 1159 1288 1364 580 
Q 1569 -128 1984 -844 
L 1484 -844 
Q 1016 -109 783 600 
Q 550 1309 550 2009 
Q 550 2706 781 3412 
Q 1013 4119 1484 4856 
L 1984 4856 
z
" transform="scale(0.015625)"/>
       <path id="DejaVuSans-4a" d="M 2906 1791 
Q 2906 2416 2648 2759 
Q 2391 3103 1925 3103 
Q 1463 3103 1205 2759 
Q 947 2416 947 1791 
Q 947 1169 1205 825 
Q 1463 481 1925 481 
Q 2391 481 2648 825 
Q 2906 1169 2906 1791 
z
M 3481 434 
Q 3481 -459 3084 -895 
Q 2688 -1331 1869 -1331 
Q 1566 -1331 1297 -1286 
Q 1028 -1241 775 -1147 
L 775 -588 
Q 1028 -725 1275 -790 
Q 1522 -856 1778 -856 
Q 2344 -856 2625 -561 
Q 2906 -266 2906 331 
L 2906 616 
Q 2728 306 2450 153 
Q 2172 0 1784 0 
Q 1141 0 747 490 
Q 353 981 353 1791 
Q 353 2603 747 3093 
Q 1141 3584 1784 3584 
Q 2172 3584 2450 3431 
Q 2728 3278 2906 2969 
L 2906 3500 
L 3481 3500 
L 3481 434 
z
" transform="scale(0.015625)"/>
       <path id="DejaVuSans-c" d="M 513 4856 
L 1013 4856 
Q 1481 4119 1714 3412 
Q 1947 2706 1947 2009 
Q 1947 1309 1714 600 
Q 1481 -109 1013 -844 
L 513 -844 
Q 928 -128 1133 580 
Q 1338 1288 1338 2009 
Q 1338 2731 1133 3434 
Q 928 4138 513 4856 
z
" transform="scale(0.015625)"/>
      </defs>
      <use xlink:href="#DejaVuSans-57"/>
      <use xlink:href="#DejaVuSans-52" transform="translate(39.203125 0)"/>
      <use xlink:href="#DejaVuSans-52" transform="translate(100.390625 0)"/>
      <use xlink:href="#DejaVuSans-4f" transform="translate(161.578125 0)"/>
      <use xlink:href="#DejaVuSans-10" transform="translate(189.359375 0)"/>
      <use xlink:href="#DejaVuSans-46" transform="translate(225.4375 0)"/>
      <use xlink:href="#DejaVuSans-44" transform="translate(280.421875 0)"/>
      <use xlink:href="#DejaVuSans-4f" transform="translate(341.703125 0)"/>
      <use xlink:href="#DejaVuSans-4f" transform="translate(369.484375 0)"/>
      <use xlink:href="#DejaVuSans-3" transform="translate(397.265625 0)"/>
      <use xlink:href="#DejaVuSans-53" transform="translate(429.046875 0)"/>
      <use xlink:href="#DejaVuSans-18" transform="translate(492.53125 0)"/>
      <use xlink:href="#DejaVuSans-13" transform="translate(556.15625 0)"/>
      <use xlink:href="#DejaVuSans-f" transform="translate(619.78125 0)"/>
      <use xlink:href="#DejaVuSans-3" transform="translate(651.5625 0)"/>
      <use xlink:href="#DejaVuSans-50" transform="translate(683.34375 0)"/>
      <use xlink:href="#DejaVuSans-56" transform="translate(780.75 0)"/>
      <use xlink:href="#DejaVuSans-3" transform="translate(832.84375 0)"/>
      <use xlink:href="#DejaVuSans-b" transform="translate(864.625 0)"/>
      <use xlink:href="#DejaVuSans-4f" transform="translate(903.640625 0)"/>
      <use xlink:href="#DejaVuSans-52" transform="translate(931.421875 0)"/>
      <use xlink:href="#DejaVuSans-4a" transform="translate(992.609375 0)"/>
      <use xlink:href="#DejaVuSans-c" transform="translate(1056.09375 0)"/>
     </g>
    </g>
   </g>
   <g id="line2d_31">
    <path d="M 74.873455 165.460932 
L 136.980468 142.352397 
L 261.194494 108.806134 
L 509.622545 75.433091 
" clip-path="url(#pd552d07f7e)" style="fill: none; stroke: #2a78d6; stroke-width: 2; stroke-linecap: square"/>
    <defs>
     <path id="mcec46fa009" d="M 0 3 
C 0.795609 3 1.55874 2.683901 2.12132 2.12132 
C 2.683901 1.55874 3 0.795609 3 0 
C 3 -0.795609 2.683901 -1.55874 2.12132 -2.12132 
C 1.55874 -2.683901 0.795609 -3 0 -3 
C -0.795609 -3 -1.55874 -2.683901 -2.12132 -2.12132 
C -2.683901 -1.55874 -3 -0.795609 -3 0 
C -3 0.795609 -2.683901 1.55874 -2.12132 2.12132 
C -1.55874 2.683901 -0.795609 3 0 3 
z
" style="stroke: #2a78d6"/>
    </defs>
    <g clip-path="url(#pd552d07f7e)">
     <use xlink:href="#mcec46fa009" x="74.873455" y="165.460932" style="fill: #2a78d6; stroke: #2a78d6"/>
     <use xlink:href="#mcec46fa009" x="136.980468" y="142.352397" style="fill: #2a78d6; stroke: #2a78d6"/>
     <use xlink:href="#mcec46fa009" x="261.194494" y="108.806134" style="fill: #2a78d6; stroke: #2a78d6"/>
     <use xlink:href="#mcec46fa009" x="509.622545" y="75.433091" style="fill: #2a78d6; stroke: #2a78d6"/>
    </g>
   </g>
   <g id="line2d_32">
    <path d="M 74.873455 173.5098 
L 136.980468 149.199404 
L 261.194494 115.510297 
L 509.622545 79.369327 
" clip-path="url(#pd552d07f7e)" style="fill: none; stroke: #eb6834; stroke-width: 2; stroke-linecap: square"/>
    <defs>
     <path id="mef2ede40e0" d="M 0 3 
C 0.795609 3 1.55874 2.683901 2.12132 2.12132 
C 2.683901 1.55874 3 0.795609 3 0 
C 3 -0.795609 2.683901 -1.55874 2.12132 -2.12132 
C 1.55874 -2.683901 0.795609 -3 0 -3 
C -0.795609 -3 -1.55874 -2.683901 -2.12132 -2.12132 
C -2.683901 -1.55874 -3 -0.795609 -3 0 
C -3 0.795609 -2.683901 1.55874 -2.12132 2.12132 
C -1.55874 2.683901 -0.795609 3 0 3 
z
" style="stroke: #eb6834"/>
    </defs>
    <g clip-path="url(#pd552d07f7e)">
     <use xlink:href="#mef2ede40e0" x="74.873455" y="173.5098" style="fill: #eb6834; stroke: #eb6834"/>
     <use xlink:href="#mef2ede40e0" x="136.980468" y="149.199404" style="fill: #eb6834; stroke: #eb6834"/>
     <use xlink:href="#mef2ede40e0" x="261.194494" y="115.510297" style="fill: #eb6834; stroke: #eb6834"/>
     <use xlink:href="#mef2ede40e0" x="509.622545" y="79.369327" style="fill: #eb6834; stroke: #eb6834"/>
    </g>
   </g>
   <g id="line2d_33">
    <path d="M 74.873455 164.403121 
L 136.980468 162.453817 
L 261.194494 154.850023 
L 509.622545 146.069628 
" clip-path="url(#pd552d07f7e)" style="fill: none; stroke: #1baf7a; stroke-width: 2; stroke-linecap: square"/>
    <defs>
     <path id="m4dc0d64ea0" d="M 0 3 
C 0.795609 3 1.55874 2.683901 2.12132 2.12132 
C 2.683901 1.55874 3 0.795609 3 0 
C 3 -0.795609 2.683901 -1.55874 2.12132 -2.12132 
C 1.55874 -2.683901 0.795609 -3 0 -3 
C -0.795609 -3 -1.55874 -2.683901 -2.12132 -2.12132 
C -2.683901 -1.55874 -3 -0.795609 -3 0 
C -3 0.795609 -2.683901 1.55874 -2.12132 2.12132 
C -1.55874 2.683901 -0.795609 3 0 3 
z
" style="stroke: #1baf7a"/>
    </defs>
    <g clip-path="url(#pd552d07f7e)">
     <use xlink:href="#m4dc0d64ea0" x="74.873455" y="164.403121" style="fill: #1baf7a; stroke: #1baf7a"/>
     <use xlink:href="#m4dc0d64ea0" x="136.980468" y="162.453817" style="fill: #1baf7a; stroke: #1baf7a"/>
     <use xlink:href="#m4dc0d64ea0" x="261.194494" y="154.850023" style="fill: #1baf7a; stroke: #1baf7a"/>
     <use xlink:href="#m4dc0d64ea0" x="509.622545" y="146.069628" style="fill: #1baf7a; stroke: #1baf7a"/>
    </g>
   </g>
   <g id="line2d_34">
    <path d="M 74.873455 236.254909 
L 136.980468 230.075444 
L 261.194494 227.388847 
L 509.622545 220.071525 
" clip-path="url(#pd552d07f7e)" style="fill: none; stroke: #4a3aa7; stroke-width: 2; stroke-linecap: square"/>
    <defs>
     <path id="m68f9834497" d="M 0 3 
C 0.795609 3 1.55874 2.683901 2.12132 2.12132 
C 2.683901 1.55874 3 0.795609 3 0 
C 3 -0.795609 2.683901 -1.55874 2.12132 -2.12132 
C 1.55874 -2.683901 0.795609 -3 0 -3 
C -0.795609 -3 -1.55874 -2.683901 -2.12132 -2.12132 
C -2.683901 -1.55874 -3 -0.795609 -3 0 
C -3 0.795609 -2.683901 1.55874 -2.12132 2.12132 
C -1.55874 2.683901 -0.795609 3 0 3 
z
" style="stroke: #4a3aa7"/>
    </defs>
    <g clip-path="url(#pd552d07f7e)">
     <use xlink:href="#m68f9834497" x="74.873455" y="236.254909" style="fill: #4a3aa7; stroke: #4a3aa7"/>
     <use xlink:href="#m68f9834497" x="136.980468" y="230.075444" style="fill: #4a3aa7; stroke: #4a3aa7"/>
     <use xlink:href="#m68f9834497" x="261.194494" y="227.388847" style="fill: #4a3aa7; stroke: #4a3aa7"/>
     <use xlink:href="#m68f9834497" x="509.622545" y="220.071525" style="fill: #4a3aa7; stroke: #4a3aa7"/>
    </g>
   </g>
   <g id="patch_3">
    <path d="M 53.136 244.296 
L 531.36 244.296 
" style="fill: none; stroke: #e5e8ec; stroke-width: 0.8; stroke-linejoin: miter; stroke-linecap: square"/>
   </g>
   <g id="text_9">
    <!-- 769 ms -->
    <g style="fill: #2a78d6" transform="translate(525.149299 77.563169) scale(0.082 -0.082)">
     <defs>
      <path id="DejaVuSans-1a" d="M 525 4666 
L 3525 4666 
L 3525 4397 
L 1831 0 
L 1172 0 
L 2766 4134 
L 525 4134 
L 525 4666 
z
" transform="scale(0.015625)"/>
      <path id="DejaVuSans-19" d="M 2113 2584 
Q 1688 2584 1439 2293 
Q 1191 2003 1191 1497 
Q 1191 994 1439 701 
Q 1688 409 2113 409 
Q 2538 409 2786 701 
Q 3034 994 3034 1497 
Q 3034 2003 2786 2293 
Q 2538 2584 2113 2584 
z
M 3366 4563 
L 3366 3988 
Q 3128 4100 2886 4159 
Q 2644 4219 2406 4219 
Q 1781 4219 1451 3797 
Q 1122 3375 1075 2522 
Q 1259 2794 1537 2939 
Q 1816 3084 2150 3084 
Q 2853 3084 3261 2657 
Q 3669 2231 3669 1497 
Q 3669 778 3244 343 
Q 2819 -91 2113 -91 
Q 1303 -91 875 529 
Q 447 1150 447 2328 
Q 447 3434 972 4092 
Q 1497 4750 2381 4750 
Q 2619 4750 2861 4703 
Q 3103 4656 3366 4563 
z
" transform="scale(0.015625)"/>
      <path id="DejaVuSans-1c" d="M 703 97 
L 703 672 
Q 941 559 1184 500 
Q 1428 441 1663 441 
Q 2288 441 2617 861 
Q 2947 1281 2994 2138 
Q 2813 1869 2534 1725 
Q 2256 1581 1919 1581 
Q 1219 1581 811 2004 
Q 403 2428 403 3163 
Q 403 3881 828 4315 
Q 1253 4750 1959 4750 
Q 2769 4750 3195 4129 
Q 3622 3509 3622 2328 
Q 3622 1225 3098 567 
Q 2575 -91 1691 -91 
Q 1453 -91 1209 -44 
Q 966 3 703 97 
z
M 1959 2075 
Q 2384 2075 2632 2365 
Q 2881 2656 2881 3163 
Q 2881 3666 2632 3958 
Q 2384 4250 1959 4250 
Q 1534 4250 1286 3958 
Q 1038 3666 1038 3163 
Q 1038 2656 1286 2365 
Q 1534 2075 1959 2075 
z
" transform="scale(0.015625)"/>
     </defs>
     <use xlink:href="#DejaVuSans-1a"/>
     <use xlink:href="#DejaVuSans-19" transform="translate(63.625 0)"/>
     <use xlink:href="#DejaVuSans-1c" transform="translate(127.25 0)"/>
     <use xlink:href="#DejaVuSans-3" transform="translate(190.875 0)"/>
     <use xlink:href="#DejaVuSans-50" transform="translate(222.65625 0)"/>
     <use xlink:href="#DejaVuSans-56" transform="translate(320.0625 0)"/>
    </g>
   </g>
   <g id="text_10">
    <!-- 679 ms -->
    <g style="fill: #eb6834" transform="translate(525.149299 81.499405) scale(0.082 -0.082)">
     <use xlink:href="#DejaVuSans-19"/>
     <use xlink:href="#DejaVuSans-1a" transform="translate(63.625 0)"/>
     <use xlink:href="#DejaVuSans-1c" transform="translate(127.25 0)"/>
     <use xlink:href="#DejaVuSans-3" transform="translate(190.875 0)"/>
     <use xlink:href="#DejaVuSans-50" transform="translate(222.65625 0)"/>
     <use xlink:href="#DejaVuSans-56" transform="translate(320.0625 0)"/>
    </g>
   </g>
   <g id="text_11">
    <!-- 81 ms -->
    <g style="fill: #1baf7a" transform="translate(525.149299 148.199706) scale(0.082 -0.082)">
     <use xlink:href="#DejaVuSans-1b"/>
     <use xlink:href="#DejaVuSans-14" transform="translate(63.625 0)"/>
     <use xlink:href="#DejaVuSans-3" transform="translate(127.25 0)"/>
     <use xlink:href="#DejaVuSans-50" transform="translate(159.03125 0)"/>
     <use xlink:href="#DejaVuSans-56" transform="translate(256.4375 0)"/>
    </g>
   </g>
   <g id="text_12">
    <!-- 8 ms -->
    <g style="fill: #4a3aa7" transform="translate(525.149299 222.201603) scale(0.082 -0.082)">
     <use xlink:href="#DejaVuSans-1b"/>
     <use xlink:href="#DejaVuSans-3" transform="translate(63.625 0)"/>
     <use xlink:href="#DejaVuSans-50" transform="translate(95.40625 0)"/>
     <use xlink:href="#DejaVuSans-56" transform="translate(192.8125 0)"/>
    </g>
   </g>
   <g id="legend_1">
    <g id="line2d_35">
     <path d="M 60.336 77.87075 
L 68.336 77.87075 
L 76.336 77.87075 
" style="fill: none; stroke: #2a78d6; stroke-width: 2; stroke-linecap: square"/>
     <g>
      <use xlink:href="#mcec46fa009" x="68.336" y="77.87075" style="fill: #2a78d6; stroke: #2a78d6"/>
     </g>
    </g>
    <g id="text_13">
     <!-- Python threads · pure -->
     <g transform="translate(82.736 80.67075) scale(0.08 -0.08)">
      <defs>
       <path id="DejaVuSans-33" d="M 1259 4147 
L 1259 2394 
L 2053 2394 
Q 2494 2394 2734 2622 
Q 2975 2850 2975 3272 
Q 2975 3691 2734 3919 
Q 2494 4147 2053 4147 
L 1259 4147 
z
M 628 4666 
L 2053 4666 
Q 2838 4666 3239 4311 
Q 3641 3956 3641 3272 
Q 3641 2581 3239 2228 
Q 2838 1875 2053 1875 
L 1259 1875 
L 1259 0 
L 628 0 
L 628 4666 
z
" transform="scale(0.015625)"/>
       <path id="DejaVuSans-5c" d="M 2059 -325 
Q 1816 -950 1584 -1140 
Q 1353 -1331 966 -1331 
L 506 -1331 
L 506 -850 
L 844 -850 
Q 1081 -850 1212 -737 
Q 1344 -625 1503 -206 
L 1606 56 
L 191 3500 
L 800 3500 
L 1894 763 
L 2988 3500 
L 3597 3500 
L 2059 -325 
z
" transform="scale(0.015625)"/>
       <path id="DejaVuSans-4b" d="M 3513 2113 
L 3513 0 
L 2938 0 
L 2938 2094 
Q 2938 2591 2744 2837 
Q 2550 3084 2163 3084 
Q 1697 3084 1428 2787 
Q 1159 2491 1159 1978 
L 1159 0 
L 581 0 
L 581 4863 
L 1159 4863 
L 1159 2956 
Q 1366 3272 1645 3428 
Q 1925 3584 2291 3584 
Q 2894 3584 3203 3211 
Q 3513 2838 3513 2113 
z
" transform="scale(0.015625)"/>
       <path id="DejaVuSans-47" d="M 2906 2969 
L 2906 4863 
L 3481 4863 
L 3481 0 
L 2906 0 
L 2906 525 
Q 2725 213 2448 61 
Q 2172 -91 1784 -91 
Q 1150 -91 751 415 
Q 353 922 353 1747 
Q 353 2572 751 3078 
Q 1150 3584 1784 3584 
Q 2172 3584 2448 3432 
Q 2725 3281 2906 2969 
z
M 947 1747 
Q 947 1113 1208 752 
Q 1469 391 1925 391 
Q 2381 391 2643 752 
Q 2906 1113 2906 1747 
Q 2906 2381 2643 2742 
Q 2381 3103 1925 3103 
Q 1469 3103 1208 2742 
Q 947 2381 947 1747 
z
" transform="scale(0.015625)"/>
       <path id="DejaVuSans-79" d="M 684 2619 
L 1344 2619 
L 1344 1825 
L 684 1825 
L 684 2619 
z
" transform="scale(0.015625)"/>
      </defs>
      <use xlink:href="#DejaVuSans-33"/>
      <use xlink:href="#DejaVuSans-5c" transform="translate(60.296875 0)"/>
      <use xlink:href="#DejaVuSans-57" transform="translate(119.484375 0)"/>
      <use xlink:href="#DejaVuSans-4b" transform="translate(158.6875 0)"/>
      <use xlink:href="#DejaVuSans-52" transform="translate(222.0625 0)"/>
      <use xlink:href="#DejaVuSans-51" transform="translate(283.25 0)"/>
      <use xlink:href="#DejaVuSans-3" transform="translate(346.625 0)"/>
      <use xlink:href="#DejaVuSans-57" transform="translate(378.40625 0)"/>
      <use xlink:href="#DejaVuSans-4b" transform="translate(417.609375 0)"/>
      <use xlink:href="#DejaVuSans-55" transform="translate(480.984375 0)"/>
      <use xlink:href="#DejaVuSans-48" transform="translate(519.890625 0)"/>
      <use xlink:href="#DejaVuSans-44" transform="translate(581.421875 0)"/>
      <use xlink:href="#DejaVuSans-47" transform="translate(642.703125 0)"/>
      <use xlink:href="#DejaVuSans-56" transform="translate(706.1875 0)"/>
      <use xlink:href="#DejaVuSans-3" transform="translate(758.28125 0)"/>
      <use xlink:href="#DejaVuSans-79" transform="translate(790.0625 0)"/>
      <use xlink:href="#DejaVuSans-3" transform="translate(821.84375 0)"/>
      <use xlink:href="#DejaVuSans-53" transform="translate(853.625 0)"/>
      <use xlink:href="#DejaVuSans-58" transform="translate(917.109375 0)"/>
      <use xlink:href="#DejaVuSans-55" transform="translate(980.484375 0)"/>
      <use xlink:href="#DejaVuSans-48" transform="translate(1019.390625 0)"/>
     </g>
    </g>
    <g id="line2d_36">
     <path d="M 60.336 89.871375 
L 68.336 89.871375 
L 76.336 89.871375 
" style="fill: none; stroke: #eb6834; stroke-width: 2; stroke-linecap: square"/>
     <g>
      <use xlink:href="#mef2ede40e0" x="68.336" y="89.871375" style="fill: #eb6834; stroke: #eb6834"/>
     </g>
    </g>
    <g id="text_14">
     <!-- Python threads · rust-ext -->
     <g transform="translate(82.736 92.671375) scale(0.08 -0.08)">
      <defs>
       <path id="DejaVuSans-5b" d="M 3513 3500 
L 2247 1797 
L 3578 0 
L 2900 0 
L 1881 1375 
L 863 0 
L 184 0 
L 1544 1831 
L 300 3500 
L 978 3500 
L 1906 2253 
L 2834 3500 
L 3513 3500 
z
" transform="scale(0.015625)"/>
      </defs>
      <use xlink:href="#DejaVuSans-33"/>
      <use xlink:href="#DejaVuSans-5c" transform="translate(60.296875 0)"/>
      <use xlink:href="#DejaVuSans-57" transform="translate(119.484375 0)"/>
      <use xlink:href="#DejaVuSans-4b" transform="translate(158.6875 0)"/>
      <use xlink:href="#DejaVuSans-52" transform="translate(222.0625 0)"/>
      <use xlink:href="#DejaVuSans-51" transform="translate(283.25 0)"/>
      <use xlink:href="#DejaVuSans-3" transform="translate(346.625 0)"/>
      <use xlink:href="#DejaVuSans-57" transform="translate(378.40625 0)"/>
      <use xlink:href="#DejaVuSans-4b" transform="translate(417.609375 0)"/>
      <use xlink:href="#DejaVuSans-55" transform="translate(480.984375 0)"/>
      <use xlink:href="#DejaVuSans-48" transform="translate(519.890625 0)"/>
      <use xlink:href="#DejaVuSans-44" transform="translate(581.421875 0)"/>
      <use xlink:href="#DejaVuSans-47" transform="translate(642.703125 0)"/>
      <use xlink:href="#DejaVuSans-56" transform="translate(706.1875 0)"/>
      <use xlink:href="#DejaVuSans-3" transform="translate(758.28125 0)"/>
      <use xlink:href="#DejaVuSans-79" transform="translate(790.0625 0)"/>
      <use xlink:href="#DejaVuSans-3" transform="translate(821.84375 0)"/>
      <use xlink:href="#DejaVuSans-55" transform="translate(853.625 0)"/>
      <use xlink:href="#DejaVuSans-58" transform="translate(894.734375 0)"/>
      <use xlink:href="#DejaVuSans-56" transform="translate(958.109375 0)"/>
      <use xlink:href="#DejaVuSans-57" transform="translate(1010.203125 0)"/>
      <use xlink:href="#DejaVuSans-10" transform="translate(1049.40625 0)"/>
      <use xlink:href="#DejaVuSans-48" transform="translate(1085.484375 0)"/>
      <use xlink:href="#DejaVuSans-5b" transform="translate(1145.265625 0)"/>
      <use xlink:href="#DejaVuSans-57" transform="translate(1204.453125 0)"/>
     </g>
    </g>
    <g id="line2d_37">
     <path d="M 60.336 101.872 
L 68.336 101.872 
L 76.336 101.872 
" style="fill: none; stroke: #1baf7a; stroke-width: 2; stroke-linecap: square"/>
     <g>
      <use xlink:href="#m4dc0d64ea0" x="68.336" y="101.872" style="fill: #1baf7a; stroke: #1baf7a"/>
     </g>
    </g>
    <g id="text_15">
     <!-- Python, process per worker -->
     <g transform="translate(82.736 104.672) scale(0.08 -0.08)">
      <use xlink:href="#DejaVuSans-33"/>
      <use xlink:href="#DejaVuSans-5c" transform="translate(60.296875 0)"/>
      <use xlink:href="#DejaVuSans-57" transform="translate(119.484375 0)"/>
      <use xlink:href="#DejaVuSans-4b" transform="translate(158.6875 0)"/>
      <use xlink:href="#DejaVuSans-52" transform="translate(222.0625 0)"/>
      <use xlink:href="#DejaVuSans-51" transform="translate(283.25 0)"/>
      <use xlink:href="#DejaVuSans-f" transform="translate(346.625 0)"/>
      <use xlink:href="#DejaVuSans-3" transform="translate(378.40625 0)"/>
      <use xlink:href="#DejaVuSans-53" transform="translate(410.1875 0)"/>
      <use xlink:href="#DejaVuSans-55" transform="translate(473.671875 0)"/>
      <use xlink:href="#DejaVuSans-52" transform="translate(512.578125 0)"/>
      <use xlink:href="#DejaVuSans-46" transform="translate(573.765625 0)"/>
      <use xlink:href="#DejaVuSans-48" transform="translate(628.75 0)"/>
      <use xlink:href="#DejaVuSans-56" transform="translate(690.28125 0)"/>
      <use xlink:href="#DejaVuSans-56" transform="translate(742.375 0)"/>
      <use xlink:href="#DejaVuSans-3" transform="translate(794.46875 0)"/>
      <use xlink:href="#DejaVuSans-53" transform="translate(826.25 0)"/>
      <use xlink:href="#DejaVuSans-48" transform="translate(889.734375 0)"/>
      <use xlink:href="#DejaVuSans-55" transform="translate(951.265625 0)"/>
      <use xlink:href="#DejaVuSans-3" transform="translate(992.375 0)"/>
      <use xlink:href="#DejaVuSans-5a" transform="translate(1024.15625 0)"/>
      <use xlink:href="#DejaVuSans-52" transform="translate(1105.9375 0)"/>
      <use xlink:href="#DejaVuSans-55" transform="translate(1167.125 0)"/>
      <use xlink:href="#DejaVuSans-4e" transform="translate(1208.234375 0)"/>
      <use xlink:href="#DejaVuSans-48" transform="translate(1262.578125 0)"/>
      <use xlink:href="#DejaVuSans-55" transform="translate(1324.109375 0)"/>
     </g>
    </g>
    <g id="line2d_38">
     <path d="M 60.336 113.872625 
L 68.336 113.872625 
L 76.336 113.872625 
" style="fill: none; stroke: #4a3aa7; stroke-width: 2; stroke-linecap: square"/>
     <g>
      <use xlink:href="#m68f9834497" x="68.336" y="113.872625" style="fill: #4a3aa7; stroke: #4a3aa7"/>
     </g>
    </g>
    <g id="text_16">
     <!-- neo4rs, one process (tokio) -->
     <g transform="translate(82.736 116.672625) scale(0.08 -0.08)">
      <defs>
       <path id="DejaVuSans-4c" d="M 603 3500 
L 1178 3500 
L 1178 0 
L 603 0 
L 603 3500 
z
M 603 4863 
L 1178 4863 
L 1178 4134 
L 603 4134 
L 603 4863 
z
" transform="scale(0.015625)"/>
      </defs>
      <use xlink:href="#DejaVuSans-51"/>
      <use xlink:href="#DejaVuSans-48" transform="translate(63.375 0)"/>
      <use xlink:href="#DejaVuSans-52" transform="translate(124.90625 0)"/>
      <use xlink:href="#DejaVuSans-17" transform="translate(186.09375 0)"/>
      <use xlink:href="#DejaVuSans-55" transform="translate(249.71875 0)"/>
      <use xlink:href="#DejaVuSans-56" transform="translate(290.828125 0)"/>
      <use xlink:href="#DejaVuSans-f" transform="translate(342.921875 0)"/>
      <use xlink:href="#DejaVuSans-3" transform="translate(374.703125 0)"/>
      <use xlink:href="#DejaVuSans-52" transform="translate(406.484375 0)"/>
      <use xlink:href="#DejaVuSans-51" transform="translate(467.671875 0)"/>
      <use xlink:href="#DejaVuSans-48" transform="translate(531.046875 0)"/>
      <use xlink:href="#DejaVuSans-3" transform="translate(592.578125 0)"/>
      <use xlink:href="#DejaVuSans-53" transform="translate(624.359375 0)"/>
      <use xlink:href="#DejaVuSans-55" transform="translate(687.84375 0)"/>
      <use xlink:href="#DejaVuSans-52" transform="translate(726.75 0)"/>
      <use xlink:href="#DejaVuSans-46" transform="translate(787.9375 0)"/>
      <use xlink:href="#DejaVuSans-48" transform="translate(842.921875 0)"/>
      <use xlink:href="#DejaVuSans-56" transform="translate(904.453125 0)"/>
      <use xlink:href="#DejaVuSans-56" transform="translate(956.546875 0)"/>
      <use xlink:href="#DejaVuSans-3" transform="translate(1008.640625 0)"/>
      <use xlink:href="#DejaVuSans-b" transform="translate(1040.421875 0)"/>
      <use xlink:href="#DejaVuSans-57" transform="translate(1079.4375 0)"/>
      <use xlink:href="#DejaVuSans-52" transform="translate(1118.640625 0)"/>
      <use xlink:href="#DejaVuSans-4e" transform="translate(1179.828125 0)"/>
      <use xlink:href="#DejaVuSans-4c" transform="translate(1237.734375 0)"/>
      <use xlink:href="#DejaVuSans-52" transform="translate(1265.515625 0)"/>
      <use xlink:href="#DejaVuSans-c" transform="translate(1326.703125 0)"/>
     </g>
    </g>
   </g>
  </g>
  <g id="text_17">
   <!-- Same load, four data planes — the ceiling was the runtime -->
   <g style="fill: #12151a" transform="translate(16.5312 20.350125) scale(0.12 -0.12)">
    <defs>
     <path id="DejaVuSans-Bold-36" d="M 3834 4519 
L 3834 3531 
Q 3450 3703 3084 3790 
Q 2719 3878 2394 3878 
Q 1963 3878 1756 3759 
Q 1550 3641 1550 3391 
Q 1550 3203 1689 3098 
Q 1828 2994 2194 2919 
L 2706 2816 
Q 3484 2659 3812 2340 
Q 4141 2022 4141 1434 
Q 4141 663 3683 286 
Q 3225 -91 2284 -91 
Q 1841 -91 1394 -6 
Q 947 78 500 244 
L 500 1259 
Q 947 1022 1364 901 
Q 1781 781 2169 781 
Q 2563 781 2772 912 
Q 2981 1044 2981 1288 
Q 2981 1506 2839 1625 
Q 2697 1744 2272 1838 
L 1806 1941 
Q 1106 2091 782 2419 
Q 459 2747 459 3303 
Q 459 4000 909 4375 
Q 1359 4750 2203 4750 
Q 2588 4750 2994 4692 
Q 3400 4634 3834 4519 
z
" transform="scale(0.015625)"/>
     <path id="DejaVuSans-Bold-44" d="M 2106 1575 
Q 1756 1575 1579 1456 
Q 1403 1338 1403 1106 
Q 1403 894 1545 773 
Q 1688 653 1941 653 
Q 2256 653 2472 879 
Q 2688 1106 2688 1447 
L 2688 1575 
L 2106 1575 
z
M 3816 1997 
L 3816 0 
L 2688 0 
L 2688 519 
Q 2463 200 2181 54 
Q 1900 -91 1497 -91 
Q 953 -91 614 226 
Q 275 544 275 1050 
Q 275 1666 698 1953 
Q 1122 2241 2028 2241 
L 2688 2241 
L 2688 2328 
Q 2688 2594 2478 2717 
Q 2269 2841 1825 2841 
Q 1466 2841 1156 2769 
Q 847 2697 581 2553 
L 581 3406 
Q 941 3494 1303 3539 
Q 1666 3584 2028 3584 
Q 2975 3584 3395 3211 
Q 3816 2838 3816 1997 
z
" transform="scale(0.015625)"/>
     <path id="DejaVuSans-Bold-50" d="M 3781 2919 
Q 3994 3244 4286 3414 
Q 4578 3584 4928 3584 
Q 5531 3584 5847 3212 
Q 6163 2841 6163 2131 
L 6163 0 
L 5038 0 
L 5038 1825 
Q 5041 1866 5042 1909 
Q 5044 1953 5044 2034 
Q 5044 2406 4934 2573 
Q 4825 2741 4581 2741 
Q 4263 2741 4089 2478 
Q 3916 2216 3909 1719 
L 3909 0 
L 2784 0 
L 2784 1825 
Q 2784 2406 2684 2573 
Q 2584 2741 2328 2741 
Q 2006 2741 1831 2477 
Q 1656 2213 1656 1722 
L 1656 0 
L 531 0 
L 531 3500 
L 1656 3500 
L 1656 2988 
Q 1863 3284 2130 3434 
Q 2397 3584 2719 3584 
Q 3081 3584 3359 3409 
Q 3638 3234 3781 2919 
z
" transform="scale(0.015625)"/>
     <path id="DejaVuSans-Bold-48" d="M 4031 1759 
L 4031 1441 
L 1416 1441 
Q 1456 1047 1700 850 
Q 1944 653 2381 653 
Q 2734 653 3104 758 
Q 3475 863 3866 1075 
L 3866 213 
Q 3469 63 3072 -14 
Q 2675 -91 2278 -91 
Q 1328 -91 801 392 
Q 275 875 275 1747 
Q 275 2603 792 3093 
Q 1309 3584 2216 3584 
Q 3041 3584 3536 3087 
Q 4031 2591 4031 1759 
z
M 2881 2131 
Q 2881 2450 2695 2645 
Q 2509 2841 2209 2841 
Q 1884 2841 1681 2658 
Q 1478 2475 1428 2131 
L 2881 2131 
z
" transform="scale(0.015625)"/>
     <path id="DejaVuSans-Bold-3" transform="scale(0.015625)"/>
     <path id="DejaVuSans-Bold-4f" d="M 538 4863 
L 1656 4863 
L 1656 0 
L 538 0 
L 538 4863 
z
" transform="scale(0.015625)"/>
     <path id="DejaVuSans-Bold-52" d="M 2203 2784 
Q 1831 2784 1636 2517 
Q 1441 2250 1441 1747 
Q 1441 1244 1636 976 
Q 1831 709 2203 709 
Q 2569 709 2762 976 
Q 2956 1244 2956 1747 
Q 2956 2250 2762 2517 
Q 2569 2784 2203 2784 
z
M 2203 3584 
Q 3106 3584 3614 3096 
Q 4122 2609 4122 1747 
Q 4122 884 3614 396 
Q 3106 -91 2203 -91 
Q 1297 -91 786 396 
Q 275 884 275 1747 
Q 275 2609 786 3096 
Q 1297 3584 2203 3584 
z
" transform="scale(0.015625)"/>
     <path id="DejaVuSans-Bold-47" d="M 2919 2988 
L 2919 4863 
L 4044 4863 
L 4044 0 
L 2919 0 
L 2919 506 
Q 2688 197 2409 53 
Q 2131 -91 1766 -91 
Q 1119 -91 703 423 
Q 288 938 288 1747 
Q 288 2556 703 3070 
Q 1119 3584 1766 3584 
Q 2128 3584 2408 3439 
Q 2688 3294 2919 2988 
z
M 2181 722 
Q 2541 722 2730 984 
Q 2919 1247 2919 1747 
Q 2919 2247 2730 2509 
Q 2541 2772 2181 2772 
Q 1825 2772 1636 2509 
Q 1447 2247 1447 1747 
Q 1447 1247 1636 984 
Q 1825 722 2181 722 
z
" transform="scale(0.015625)"/>
     <path id="DejaVuSans-Bold-f" d="M 653 1209 
L 1778 1209 
L 1778 256 
L 1006 -909 
L 341 -909 
L 653 256 
L 653 1209 
z
" transform="scale(0.015625)"/>
     <path id="DejaVuSans-Bold-49" d="M 2841 4863 
L 2841 4128 
L 2222 4128 
Q 1984 4128 1890 4042 
Q 1797 3956 1797 3744 
L 1797 3500 
L 2753 3500 
L 2753 2700 
L 1797 2700 
L 1797 0 
L 678 0 
L 678 2700 
L 122 2700 
L 122 3500 
L 678 3500 
L 678 3744 
Q 678 4316 997 4589 
Q 1316 4863 1984 4863 
L 2841 4863 
z
" transform="scale(0.015625)"/>
     <path id="DejaVuSans-Bold-58" d="M 500 1363 
L 500 3500 
L 1625 3500 
L 1625 3150 
Q 1625 2866 1622 2436 
Q 1619 2006 1619 1863 
Q 1619 1441 1641 1255 
Q 1663 1069 1716 984 
Q 1784 875 1895 815 
Q 2006 756 2150 756 
Q 2500 756 2700 1025 
Q 2900 1294 2900 1772 
L 2900 3500 
L 4019 3500 
L 4019 0 
L 2900 0 
L 2900 506 
Q 2647 200 2364 54 
Q 2081 -91 1741 -91 
Q 1134 -91 817 281 
Q 500 653 500 1363 
z
" transform="scale(0.015625)"/>
     <path id="DejaVuSans-Bold-55" d="M 3138 2547 
Q 2991 2616 2845 2648 
Q 2700 2681 2553 2681 
Q 2122 2681 1889 2404 
Q 1656 2128 1656 1613 
L 1656 0 
L 538 0 
L 538 3500 
L 1656 3500 
L 1656 2925 
Q 1872 3269 2151 3426 
Q 2431 3584 2822 3584 
Q 2878 3584 2943 3579 
Q 3009 3575 3134 3559 
L 3138 2547 
z
" transform="scale(0.015625)"/>
     <path id="DejaVuSans-Bold-57" d="M 1759 4494 
L 1759 3500 
L 2913 3500 
L 2913 2700 
L 1759 2700 
L 1759 1216 
Q 1759 972 1856 886 
Q 1953 800 2241 800 
L 2816 800 
L 2816 0 
L 1856 0 
Q 1194 0 917 276 
Q 641 553 641 1216 
L 641 2700 
L 84 2700 
L 84 3500 
L 641 3500 
L 641 4494 
L 1759 4494 
z
" transform="scale(0.015625)"/>
     <path id="DejaVuSans-Bold-53" d="M 1656 506 
L 1656 -1331 
L 538 -1331 
L 538 3500 
L 1656 3500 
L 1656 2988 
Q 1888 3294 2169 3439 
Q 2450 3584 2816 3584 
Q 3463 3584 3878 3070 
Q 4294 2556 4294 1747 
Q 4294 938 3878 423 
Q 3463 -91 2816 -91 
Q 2450 -91 2169 54 
Q 1888 200 1656 506 
z
M 2400 2772 
Q 2041 2772 1848 2508 
Q 1656 2244 1656 1747 
Q 1656 1250 1848 986 
Q 2041 722 2400 722 
Q 2759 722 2948 984 
Q 3138 1247 3138 1747 
Q 3138 2247 2948 2509 
Q 2759 2772 2400 2772 
z
" transform="scale(0.015625)"/>
     <path id="DejaVuSans-Bold-51" d="M 4056 2131 
L 4056 0 
L 2931 0 
L 2931 347 
L 2931 1631 
Q 2931 2084 2911 2256 
Q 2891 2428 2841 2509 
Q 2775 2619 2662 2680 
Q 2550 2741 2406 2741 
Q 2056 2741 1856 2470 
Q 1656 2200 1656 1722 
L 1656 0 
L 538 0 
L 538 3500 
L 1656 3500 
L 1656 2988 
Q 1909 3294 2193 3439 
Q 2478 3584 2822 3584 
Q 3428 3584 3742 3212 
Q 4056 2841 4056 2131 
z
" transform="scale(0.015625)"/>
     <path id="DejaVuSans-Bold-56" d="M 3272 3391 
L 3272 2541 
Q 2913 2691 2578 2766 
Q 2244 2841 1947 2841 
Q 1628 2841 1473 2761 
Q 1319 2681 1319 2516 
Q 1319 2381 1436 2309 
Q 1553 2238 1856 2203 
L 2053 2175 
Q 2913 2066 3209 1816 
Q 3506 1566 3506 1031 
Q 3506 472 3093 190 
Q 2681 -91 1863 -91 
Q 1516 -91 1145 -36 
Q 775 19 384 128 
L 384 978 
Q 719 816 1070 734 
Q 1422 653 1784 653 
Q 2113 653 2278 743 
Q 2444 834 2444 1013 
Q 2444 1163 2330 1236 
Q 2216 1309 1875 1350 
L 1678 1375 
Q 931 1469 631 1722 
Q 331 1975 331 2491 
Q 331 3047 712 3315 
Q 1094 3584 1881 3584 
Q 2191 3584 2531 3537 
Q 2872 3491 3272 3391 
z
" transform="scale(0.015625)"/>
     <path id="DejaVuSans-Bold-af6" d="M 344 2156 
L 6056 2156 
L 6056 1350 
L 344 1350 
L 344 2156 
z
" transform="scale(0.015625)"/>
     <path id="DejaVuSans-Bold-4b" d="M 4056 2131 
L 4056 0 
L 2931 0 
L 2931 347 
L 2931 1625 
Q 2931 2084 2911 2256 
Q 2891 2428 2841 2509 
Q 2775 2619 2662 2680 
Q 2550 2741 2406 2741 
Q 2056 2741 1856 2470 
Q 1656 2200 1656 1722 
L 1656 0 
L 538 0 
L 538 4863 
L 1656 4863 
L 1656 2988 
Q 1909 3294 2193 3439 
Q 2478 3584 2822 3584 
Q 3428 3584 3742 3212 
Q 4056 2841 4056 2131 
z
" transform="scale(0.015625)"/>
     <path id="DejaVuSans-Bold-46" d="M 3366 3391 
L 3366 2478 
Q 3138 2634 2908 2709 
Q 2678 2784 2431 2784 
Q 1963 2784 1702 2511 
Q 1441 2238 1441 1747 
Q 1441 1256 1702 982 
Q 1963 709 2431 709 
Q 2694 709 2930 787 
Q 3166 866 3366 1019 
L 3366 103 
Q 3103 6 2833 -42 
Q 2563 -91 2291 -91 
Q 1344 -91 809 395 
Q 275 881 275 1747 
Q 275 2613 809 3098 
Q 1344 3584 2291 3584 
Q 2566 3584 2833 3536 
Q 3100 3488 3366 3391 
z
" transform="scale(0.015625)"/>
     <path id="DejaVuSans-Bold-4c" d="M 538 3500 
L 1656 3500 
L 1656 0 
L 538 0 
L 538 3500 
z
M 538 4863 
L 1656 4863 
L 1656 3950 
L 538 3950 
L 538 4863 
z
" transform="scale(0.015625)"/>
     <path id="DejaVuSans-Bold-4a" d="M 2919 594 
Q 2688 288 2409 144 
Q 2131 0 1766 0 
Q 1125 0 706 504 
Q 288 1009 288 1791 
Q 288 2575 706 3076 
Q 1125 3578 1766 3578 
Q 2131 3578 2409 3434 
Q 2688 3291 2919 2981 
L 2919 3500 
L 4044 3500 
L 4044 353 
Q 4044 -491 3511 -936 
Q 2978 -1381 1966 -1381 
Q 1638 -1381 1331 -1331 
Q 1025 -1281 716 -1178 
L 716 -306 
Q 1009 -475 1290 -558 
Q 1572 -641 1856 -641 
Q 2406 -641 2662 -400 
Q 2919 -159 2919 353 
L 2919 594 
z
M 2181 2772 
Q 1834 2772 1640 2515 
Q 1447 2259 1447 1791 
Q 1447 1309 1634 1061 
Q 1822 813 2181 813 
Q 2531 813 2725 1069 
Q 2919 1325 2919 1791 
Q 2919 2259 2725 2515 
Q 2531 2772 2181 2772 
z
" transform="scale(0.015625)"/>
     <path id="DejaVuSans-Bold-5a" d="M 225 3500 
L 1313 3500 
L 1900 1088 
L 2491 3500 
L 3425 3500 
L 4013 1113 
L 4603 3500 
L 5691 3500 
L 4769 0 
L 3547 0 
L 2956 2406 
L 2369 0 
L 1147 0 
L 225 3500 
z
" transform="scale(0.015625)"/>
    </defs>
    <use xlink:href="#DejaVuSans-Bold-36"/>
    <use xlink:href="#DejaVuSans-Bold-44" transform="translate(72.015625 0)"/>
    <use xlink:href="#DejaVuSans-Bold-50" transform="translate(139.5 0)"/>
    <use xlink:href="#DejaVuSans-Bold-48" transform="translate(243.703125 0)"/>
    <use xlink:href="#DejaVuSans-Bold-3" transform="translate(311.53125 0)"/>
    <use xlink:href="#DejaVuSans-Bold-4f" transform="translate(346.34375 0)"/>
    <use xlink:href="#DejaVuSans-Bold-52" transform="translate(380.625 0)"/>
    <use xlink:href="#DejaVuSans-Bold-44" transform="translate(449.328125 0)"/>
    <use xlink:href="#DejaVuSans-Bold-47" transform="translate(516.8125 0)"/>
    <use xlink:href="#DejaVuSans-Bold-f" transform="translate(588.390625 0)"/>
    <use xlink:href="#DejaVuSans-Bold-3" transform="translate(626.375 0)"/>
    <use xlink:href="#DejaVuSans-Bold-49" transform="translate(661.1875 0)"/>
    <use xlink:href="#DejaVuSans-Bold-52" transform="translate(704.6875 0)"/>
    <use xlink:href="#DejaVuSans-Bold-58" transform="translate(773.390625 0)"/>
    <use xlink:href="#DejaVuSans-Bold-55" transform="translate(844.578125 0)"/>
    <use xlink:href="#DejaVuSans-Bold-3" transform="translate(893.890625 0)"/>
    <use xlink:href="#DejaVuSans-Bold-47" transform="translate(928.703125 0)"/>
    <use xlink:href="#DejaVuSans-Bold-44" transform="translate(1000.28125 0)"/>
    <use xlink:href="#DejaVuSans-Bold-57" transform="translate(1067.765625 0)"/>
    <use xlink:href="#DejaVuSans-Bold-44" transform="translate(1115.5625 0)"/>
    <use xlink:href="#DejaVuSans-Bold-3" transform="translate(1183.046875 0)"/>
    <use xlink:href="#DejaVuSans-Bold-53" transform="translate(1217.859375 0)"/>
    <use xlink:href="#DejaVuSans-Bold-4f" transform="translate(1289.4375 0)"/>
    <use xlink:href="#DejaVuSans-Bold-44" transform="translate(1323.71875 0)"/>
    <use xlink:href="#DejaVuSans-Bold-51" transform="translate(1391.203125 0)"/>
    <use xlink:href="#DejaVuSans-Bold-48" transform="translate(1462.390625 0)"/>
    <use xlink:href="#DejaVuSans-Bold-56" transform="translate(1530.21875 0)"/>
    <use xlink:href="#DejaVuSans-Bold-3" transform="translate(1589.734375 0)"/>
    <use xlink:href="#DejaVuSans-Bold-af6" transform="translate(1624.546875 0)"/>
    <use xlink:href="#DejaVuSans-Bold-3" transform="translate(1724.546875 0)"/>
    <use xlink:href="#DejaVuSans-Bold-57" transform="translate(1759.359375 0)"/>
    <use xlink:href="#DejaVuSans-Bold-4b" transform="translate(1807.15625 0)"/>
    <use xlink:href="#DejaVuSans-Bold-48" transform="translate(1878.34375 0)"/>
    <use xlink:href="#DejaVuSans-Bold-3" transform="translate(1946.171875 0)"/>
    <use xlink:href="#DejaVuSans-Bold-46" transform="translate(1980.984375 0)"/>
    <use xlink:href="#DejaVuSans-Bold-48" transform="translate(2040.265625 0)"/>
    <use xlink:href="#DejaVuSans-Bold-4c" transform="translate(2108.09375 0)"/>
    <use xlink:href="#DejaVuSans-Bold-4f" transform="translate(2142.375 0)"/>
    <use xlink:href="#DejaVuSans-Bold-4c" transform="translate(2176.65625 0)"/>
    <use xlink:href="#DejaVuSans-Bold-51" transform="translate(2210.9375 0)"/>
    <use xlink:href="#DejaVuSans-Bold-4a" transform="translate(2282.125 0)"/>
    <use xlink:href="#DejaVuSans-Bold-3" transform="translate(2353.703125 0)"/>
    <use xlink:href="#DejaVuSans-Bold-5a" transform="translate(2388.515625 0)"/>
    <use xlink:href="#DejaVuSans-Bold-44" transform="translate(2480.90625 0)"/>
    <use xlink:href="#DejaVuSans-Bold-56" transform="translate(2548.390625 0)"/>
    <use xlink:href="#DejaVuSans-Bold-3" transform="translate(2607.90625 0)"/>
    <use xlink:href="#DejaVuSans-Bold-57" transform="translate(2642.71875 0)"/>
    <use xlink:href="#DejaVuSans-Bold-4b" transform="translate(2690.515625 0)"/>
    <use xlink:href="#DejaVuSans-Bold-48" transform="translate(2761.703125 0)"/>
    <use xlink:href="#DejaVuSans-Bold-3" transform="translate(2829.53125 0)"/>
    <use xlink:href="#DejaVuSans-Bold-55" transform="translate(2864.34375 0)"/>
    <use xlink:href="#DejaVuSans-Bold-58" transform="translate(2913.65625 0)"/>
    <use xlink:href="#DejaVuSans-Bold-51" transform="translate(2984.84375 0)"/>
    <use xlink:href="#DejaVuSans-Bold-57" transform="translate(3056.03125 0)"/>
    <use xlink:href="#DejaVuSans-Bold-4c" transform="translate(3103.828125 0)"/>
    <use xlink:href="#DejaVuSans-Bold-50" transform="translate(3138.109375 0)"/>
    <use xlink:href="#DejaVuSans-Bold-48" transform="translate(3242.3125 0)"/>
   </g>
  </g>
  <g id="text_18">
   <!-- Median tool-call latency against concurrency, one box, same DozerDB. Threads share one interpreter and queue on the GIL; processes buy -->
   <g style="fill: #6b7684" transform="translate(16.5312 45.131508) scale(0.084 -0.084)">
    <defs>
     <path id="DejaVuSans-30" d="M 628 4666 
L 1569 4666 
L 2759 1491 
L 3956 4666 
L 4897 4666 
L 4897 0 
L 4281 0 
L 4281 4097 
L 3078 897 
L 2444 897 
L 1241 4097 
L 1241 0 
L 628 0 
L 628 4666 
z
" transform="scale(0.015625)"/>
     <path id="DejaVuSans-45" d="M 3116 1747 
Q 3116 2381 2855 2742 
Q 2594 3103 2138 3103 
Q 1681 3103 1420 2742 
Q 1159 2381 1159 1747 
Q 1159 1113 1420 752 
Q 1681 391 2138 391 
Q 2594 391 2855 752 
Q 3116 1113 3116 1747 
z
M 1159 2969 
Q 1341 3281 1617 3432 
Q 1894 3584 2278 3584 
Q 2916 3584 3314 3078 
Q 3713 2572 3713 1747 
Q 3713 922 3314 415 
Q 2916 -91 2278 -91 
Q 1894 -91 1617 61 
Q 1341 213 1159 525 
L 1159 0 
L 581 0 
L 581 4863 
L 1159 4863 
L 1159 2969 
z
" transform="scale(0.015625)"/>
     <path id="DejaVuSans-27" d="M 1259 4147 
L 1259 519 
L 2022 519 
Q 2988 519 3436 956 
Q 3884 1394 3884 2338 
Q 3884 3275 3436 3711 
Q 2988 4147 2022 4147 
L 1259 4147 
z
M 628 4666 
L 1925 4666 
Q 3281 4666 3915 4102 
Q 4550 3538 4550 2338 
Q 4550 1131 3912 565 
Q 3275 0 1925 0 
L 628 0 
L 628 4666 
z
" transform="scale(0.015625)"/>
     <path id="DejaVuSans-5d" d="M 353 3500 
L 3084 3500 
L 3084 2975 
L 922 459 
L 3084 459 
L 3084 0 
L 275 0 
L 275 525 
L 2438 3041 
L 353 3041 
L 353 3500 
z
" transform="scale(0.015625)"/>
     <path id="DejaVuSans-25" d="M 1259 2228 
L 1259 519 
L 2272 519 
Q 2781 519 3026 730 
Q 3272 941 3272 1375 
Q 3272 1813 3026 2020 
Q 2781 2228 2272 2228 
L 1259 2228 
z
M 1259 4147 
L 1259 2741 
L 2194 2741 
Q 2656 2741 2882 2914 
Q 3109 3088 3109 3444 
Q 3109 3797 2882 3972 
Q 2656 4147 2194 4147 
L 1259 4147 
z
M 628 4666 
L 2241 4666 
Q 2963 4666 3353 4366 
Q 3744 4066 3744 3513 
Q 3744 3084 3544 2831 
Q 3344 2578 2956 2516 
Q 3422 2416 3680 2098 
Q 3938 1781 3938 1306 
Q 3938 681 3513 340 
Q 3088 0 2303 0 
L 628 0 
L 628 4666 
z
" transform="scale(0.015625)"/>
     <path id="DejaVuSans-11" d="M 684 794 
L 1344 794 
L 1344 0 
L 684 0 
L 684 794 
z
" transform="scale(0.015625)"/>
     <path id="DejaVuSans-37" d="M -19 4666 
L 3928 4666 
L 3928 4134 
L 2272 4134 
L 2272 0 
L 1638 0 
L 1638 4134 
L -19 4134 
L -19 4666 
z
" transform="scale(0.015625)"/>
     <path id="DejaVuSans-54" d="M 947 1747 
Q 947 1113 1208 752 
Q 1469 391 1925 391 
Q 2381 391 2643 752 
Q 2906 1113 2906 1747 
Q 2906 2381 2643 2742 
Q 2381 3103 1925 3103 
Q 1469 3103 1208 2742 
Q 947 2381 947 1747 
z
M 2906 525 
Q 2725 213 2448 61 
Q 2172 -91 1784 -91 
Q 1150 -91 751 415 
Q 353 922 353 1747 
Q 353 2572 751 3078 
Q 1150 3584 1784 3584 
Q 2172 3584 2448 3432 
Q 2725 3281 2906 2969 
L 2906 3500 
L 3481 3500 
L 3481 -1331 
L 2906 -1331 
L 2906 525 
z
" transform="scale(0.015625)"/>
     <path id="DejaVuSans-2a" d="M 3809 666 
L 3809 1919 
L 2778 1919 
L 2778 2438 
L 4434 2438 
L 4434 434 
Q 4069 175 3628 42 
Q 3188 -91 2688 -91 
Q 1594 -91 976 548 
Q 359 1188 359 2328 
Q 359 3472 976 4111 
Q 1594 4750 2688 4750 
Q 3144 4750 3555 4637 
Q 3966 4525 4313 4306 
L 4313 3634 
Q 3963 3931 3569 4081 
Q 3175 4231 2741 4231 
Q 1884 4231 1454 3753 
Q 1025 3275 1025 2328 
Q 1025 1384 1454 906 
Q 1884 428 2741 428 
Q 3075 428 3337 486 
Q 3600 544 3809 666 
z
" transform="scale(0.015625)"/>
     <path id="DejaVuSans-2c" d="M 628 4666 
L 1259 4666 
L 1259 0 
L 628 0 
L 628 4666 
z
" transform="scale(0.015625)"/>
     <path id="DejaVuSans-2f" d="M 628 4666 
L 1259 4666 
L 1259 531 
L 3531 531 
L 3531 0 
L 628 0 
L 628 4666 
z
" transform="scale(0.015625)"/>
     <path id="DejaVuSans-1e" d="M 750 3309 
L 1409 3309 
L 1409 2516 
L 750 2516 
L 750 3309 
z
M 750 794 
L 1409 794 
L 1409 256 
L 897 -744 
L 494 -744 
L 750 256 
L 750 794 
z
" transform="scale(0.015625)"/>
    </defs>
    <use xlink:href="#DejaVuSans-30"/>
    <use xlink:href="#DejaVuSans-48" transform="translate(86.28125 0)"/>
    <use xlink:href="#DejaVuSans-47" transform="translate(147.8125 0)"/>
    <use xlink:href="#DejaVuSans-4c" transform="translate(211.296875 0)"/>
    <use xlink:href="#DejaVuSans-44" transform="translate(239.078125 0)"/>
    <use xlink:href="#DejaVuSans-51" transform="translate(300.359375 0)"/>
    <use xlink:href="#DejaVuSans-3" transform="translate(363.734375 0)"/>
    <use xlink:href="#DejaVuSans-57" transform="translate(395.515625 0)"/>
    <use xlink:href="#DejaVuSans-52" transform="translate(434.71875 0)"/>
    <use xlink:href="#DejaVuSans-52" transform="translate(495.90625 0)"/>
    <use xlink:href="#DejaVuSans-4f" transform="translate(557.09375 0)"/>
    <use xlink:href="#DejaVuSans-10" transform="translate(584.875 0)"/>
    <use xlink:href="#DejaVuSans-46" transform="translate(620.953125 0)"/>
    <use xlink:href="#DejaVuSans-44" transform="translate(675.9375 0)"/>
    <use xlink:href="#DejaVuSans-4f" transform="translate(737.21875 0)"/>
    <use xlink:href="#DejaVuSans-4f" transform="translate(765 0)"/>
    <use xlink:href="#DejaVuSans-3" transform="translate(792.78125 0)"/>
    <use xlink:href="#DejaVuSans-4f" transform="translate(824.5625 0)"/>
    <use xlink:href="#DejaVuSans-44" transform="translate(852.34375 0)"/>
    <use xlink:href="#DejaVuSans-57" transform="translate(913.625 0)"/>
    <use xlink:href="#DejaVuSans-48" transform="translate(952.828125 0)"/>
    <use xlink:href="#DejaVuSans-51" transform="translate(1014.359375 0)"/>
    <use xlink:href="#DejaVuSans-46" transform="translate(1077.734375 0)"/>
    <use xlink:href="#DejaVuSans-5c" transform="translate(1132.71875 0)"/>
    <use xlink:href="#DejaVuSans-3" transform="translate(1191.90625 0)"/>
    <use xlink:href="#DejaVuSans-44" transform="translate(1223.6875 0)"/>
    <use xlink:href="#DejaVuSans-4a" transform="translate(1284.96875 0)"/>
    <use xlink:href="#DejaVuSans-44" transform="translate(1348.453125 0)"/>
    <use xlink:href="#DejaVuSans-4c" transform="translate(1409.734375 0)"/>
    <use xlink:href="#DejaVuSans-51" transform="translate(1437.515625 0)"/>
    <use xlink:href="#DejaVuSans-56" transform="translate(1500.890625 0)"/>
    <use xlink:href="#DejaVuSans-57" transform="translate(1552.984375 0)"/>
    <use xlink:href="#DejaVuSans-3" transform="translate(1592.1875 0)"/>
    <use xlink:href="#DejaVuSans-46" transform="translate(1623.96875 0)"/>
    <use xlink:href="#DejaVuSans-52" transform="translate(1678.953125 0)"/>
    <use xlink:href="#DejaVuSans-51" transform="translate(1740.140625 0)"/>
    <use xlink:href="#DejaVuSans-46" transform="translate(1803.515625 0)"/>
    <use xlink:href="#DejaVuSans-58" transform="translate(1858.5 0)"/>
    <use xlink:href="#DejaVuSans-55" transform="translate(1921.875 0)"/>
    <use xlink:href="#DejaVuSans-55" transform="translate(1961.234375 0)"/>
    <use xlink:href="#DejaVuSans-48" transform="translate(2000.140625 0)"/>
    <use xlink:href="#DejaVuSans-51" transform="translate(2061.671875 0)"/>
    <use xlink:href="#DejaVuSans-46" transform="translate(2125.046875 0)"/>
    <use xlink:href="#DejaVuSans-5c" transform="translate(2180.03125 0)"/>
    <use xlink:href="#DejaVuSans-f" transform="translate(2239.21875 0)"/>
    <use xlink:href="#DejaVuSans-3" transform="translate(2271 0)"/>
    <use xlink:href="#DejaVuSans-52" transform="translate(2302.78125 0)"/>
    <use xlink:href="#DejaVuSans-51" transform="translate(2363.96875 0)"/>
    <use xlink:href="#DejaVuSans-48" transform="translate(2427.34375 0)"/>
    <use xlink:href="#DejaVuSans-3" transform="translate(2488.875 0)"/>
    <use xlink:href="#DejaVuSans-45" transform="translate(2520.65625 0)"/>
    <use xlink:href="#DejaVuSans-52" transform="translate(2584.140625 0)"/>
    <use xlink:href="#DejaVuSans-5b" transform="translate(2642.25 0)"/>
    <use xlink:href="#DejaVuSans-f" transform="translate(2701.4375 0)"/>
    <use xlink:href="#DejaVuSans-3" transform="translate(2733.21875 0)"/>
    <use xlink:href="#DejaVuSans-56" transform="translate(2765 0)"/>
    <use xlink:href="#DejaVuSans-44" transform="translate(2817.09375 0)"/>
    <use xlink:href="#DejaVuSans-50" transform="translate(2878.375 0)"/>
    <use xlink:href="#DejaVuSans-48" transform="translate(2975.78125 0)"/>
    <use xlink:href="#DejaVuSans-3" transform="translate(3037.3125 0)"/>
    <use xlink:href="#DejaVuSans-27" transform="translate(3069.09375 0)"/>
    <use xlink:href="#DejaVuSans-52" transform="translate(3146.09375 0)"/>
    <use xlink:href="#DejaVuSans-5d" transform="translate(3207.28125 0)"/>
    <use xlink:href="#DejaVuSans-48" transform="translate(3259.765625 0)"/>
    <use xlink:href="#DejaVuSans-55" transform="translate(3321.296875 0)"/>
    <use xlink:href="#DejaVuSans-27" transform="translate(3362.40625 0)"/>
    <use xlink:href="#DejaVuSans-25" transform="translate(3439.40625 0)"/>
    <use xlink:href="#DejaVuSans-11" transform="translate(3508.015625 0)"/>
    <use xlink:href="#DejaVuSans-3" transform="translate(3539.796875 0)"/>
    <use xlink:href="#DejaVuSans-37" transform="translate(3571.578125 0)"/>
    <use xlink:href="#DejaVuSans-4b" transform="translate(3632.65625 0)"/>
    <use xlink:href="#DejaVuSans-55" transform="translate(3696.03125 0)"/>
    <use xlink:href="#DejaVuSans-48" transform="translate(3734.9375 0)"/>
    <use xlink:href="#DejaVuSans-44" transform="translate(3796.46875 0)"/>
    <use xlink:href="#DejaVuSans-47" transform="translate(3857.75 0)"/>
    <use xlink:href="#DejaVuSans-56" transform="translate(3921.234375 0)"/>
    <use xlink:href="#DejaVuSans-3" transform="translate(3973.328125 0)"/>
    <use xlink:href="#DejaVuSans-56" transform="translate(4005.109375 0)"/>
    <use xlink:href="#DejaVuSans-4b" transform="translate(4057.203125 0)"/>
    <use xlink:href="#DejaVuSans-44" transform="translate(4120.578125 0)"/>
    <use xlink:href="#DejaVuSans-55" transform="translate(4181.859375 0)"/>
    <use xlink:href="#DejaVuSans-48" transform="translate(4220.765625 0)"/>
    <use xlink:href="#DejaVuSans-3" transform="translate(4282.296875 0)"/>
    <use xlink:href="#DejaVuSans-52" transform="translate(4314.078125 0)"/>
    <use xlink:href="#DejaVuSans-51" transform="translate(4375.265625 0)"/>
    <use xlink:href="#DejaVuSans-48" transform="translate(4438.640625 0)"/>
    <use xlink:href="#DejaVuSans-3" transform="translate(4500.171875 0)"/>
    <use xlink:href="#DejaVuSans-4c" transform="translate(4531.953125 0)"/>
    <use xlink:href="#DejaVuSans-51" transform="translate(4559.734375 0)"/>
    <use xlink:href="#DejaVuSans-57" transform="translate(4623.109375 0)"/>
    <use xlink:href="#DejaVuSans-48" transform="translate(4662.3125 0)"/>
    <use xlink:href="#DejaVuSans-55" transform="translate(4723.84375 0)"/>
    <use xlink:href="#DejaVuSans-53" transform="translate(4764.953125 0)"/>
    <use xlink:href="#DejaVuSans-55" transform="translate(4828.4375 0)"/>
    <use xlink:href="#DejaVuSans-48" transform="translate(4867.34375 0)"/>
    <use xlink:href="#DejaVuSans-57" transform="translate(4928.875 0)"/>
    <use xlink:href="#DejaVuSans-48" transform="translate(4968.078125 0)"/>
    <use xlink:href="#DejaVuSans-55" transform="translate(5029.609375 0)"/>
    <use xlink:href="#DejaVuSans-3" transform="translate(5070.71875 0)"/>
    <use xlink:href="#DejaVuSans-44" transform="translate(5102.5 0)"/>
    <use xlink:href="#DejaVuSans-51" transform="translate(5163.78125 0)"/>
    <use xlink:href="#DejaVuSans-47" transform="translate(5227.15625 0)"/>
    <use xlink:href="#DejaVuSans-3" transform="translate(5290.640625 0)"/>
    <use xlink:href="#DejaVuSans-54" transform="translate(5322.421875 0)"/>
    <use xlink:href="#DejaVuSans-58" transform="translate(5385.90625 0)"/>
    <use xlink:href="#DejaVuSans-48" transform="translate(5449.28125 0)"/>
    <use xlink:href="#DejaVuSans-58" transform="translate(5510.8125 0)"/>
    <use xlink:href="#DejaVuSans-48" transform="translate(5574.1875 0)"/>
    <use xlink:href="#DejaVuSans-3" transform="translate(5635.71875 0)"/>
    <use xlink:href="#DejaVuSans-52" transform="translate(5667.5 0)"/>
    <use xlink:href="#DejaVuSans-51" transform="translate(5728.6875 0)"/>
    <use xlink:href="#DejaVuSans-3" transform="translate(5792.0625 0)"/>
    <use xlink:href="#DejaVuSans-57" transform="translate(5823.84375 0)"/>
    <use xlink:href="#DejaVuSans-4b" transform="translate(5863.046875 0)"/>
    <use xlink:href="#DejaVuSans-48" transform="translate(5926.421875 0)"/>
    <use xlink:href="#DejaVuSans-3" transform="translate(5987.953125 0)"/>
    <use xlink:href="#DejaVuSans-2a" transform="translate(6019.734375 0)"/>
    <use xlink:href="#DejaVuSans-2c" transform="translate(6097.21875 0)"/>
    <use xlink:href="#DejaVuSans-2f" transform="translate(6126.71875 0)"/>
    <use xlink:href="#DejaVuSans-1e" transform="translate(6182.4375 0)"/>
    <use xlink:href="#DejaVuSans-3" transform="translate(6216.125 0)"/>
    <use xlink:href="#DejaVuSans-53" transform="translate(6247.90625 0)"/>
    <use xlink:href="#DejaVuSans-55" transform="translate(6311.390625 0)"/>
    <use xlink:href="#DejaVuSans-52" transform="translate(6350.296875 0)"/>
    <use xlink:href="#DejaVuSans-46" transform="translate(6411.484375 0)"/>
    <use xlink:href="#DejaVuSans-48" transform="translate(6466.46875 0)"/>
    <use xlink:href="#DejaVuSans-56" transform="translate(6528 0)"/>
    <use xlink:href="#DejaVuSans-56" transform="translate(6580.09375 0)"/>
    <use xlink:href="#DejaVuSans-48" transform="translate(6632.1875 0)"/>
    <use xlink:href="#DejaVuSans-56" transform="translate(6693.71875 0)"/>
    <use xlink:href="#DejaVuSans-3" transform="translate(6745.8125 0)"/>
    <use xlink:href="#DejaVuSans-45" transform="translate(6777.59375 0)"/>
    <use xlink:href="#DejaVuSans-58" transform="translate(6841.078125 0)"/>
    <use xlink:href="#DejaVuSans-5c" transform="translate(6904.453125 0)"/>
   </g>
   <!-- cores with N interpreters; a single native process does the whole load in 7.7 ms because rows never become Python objects. -->
   <g style="fill: #6b7684" transform="translate(16.5312 55.213805) scale(0.084 -0.084)">
    <defs>
     <path id="DejaVuSans-31" d="M 628 4666 
L 1478 4666 
L 3547 763 
L 3547 4666 
L 4159 4666 
L 4159 0 
L 3309 0 
L 1241 3903 
L 1241 0 
L 628 0 
L 628 4666 
z
" transform="scale(0.015625)"/>
     <path id="DejaVuSans-59" d="M 191 3500 
L 800 3500 
L 1894 563 
L 2988 3500 
L 3597 3500 
L 2284 0 
L 1503 0 
L 191 3500 
z
" transform="scale(0.015625)"/>
     <path id="DejaVuSans-4d" d="M 603 3500 
L 1178 3500 
L 1178 -63 
Q 1178 -731 923 -1031 
Q 669 -1331 103 -1331 
L -116 -1331 
L -116 -844 
L 38 -844 
Q 366 -844 484 -692 
Q 603 -541 603 -63 
L 603 3500 
z
M 603 4863 
L 1178 4863 
L 1178 4134 
L 603 4134 
L 603 4863 
z
" transform="scale(0.015625)"/>
    </defs>
    <use xlink:href="#DejaVuSans-46"/>
    <use xlink:href="#DejaVuSans-52" transform="translate(54.984375 0)"/>
    <use xlink:href="#DejaVuSans-55" transform="translate(116.171875 0)"/>
    <use xlink:href="#DejaVuSans-48" transform="translate(155.078125 0)"/>
    <use xlink:href="#DejaVuSans-56" transform="translate(216.609375 0)"/>
    <use xlink:href="#DejaVuSans-3" transform="translate(268.703125 0)"/>
    <use xlink:href="#DejaVuSans-5a" transform="translate(300.484375 0)"/>
    <use xlink:href="#DejaVuSans-4c" transform="translate(382.265625 0)"/>
    <use xlink:href="#DejaVuSans-57" transform="translate(410.046875 0)"/>
    <use xlink:href="#DejaVuSans-4b" transform="translate(449.25 0)"/>
    <use xlink:href="#DejaVuSans-3" transform="translate(512.625 0)"/>
    <use xlink:href="#DejaVuSans-31" transform="translate(544.40625 0)"/>
    <use xlink:href="#DejaVuSans-3" transform="translate(619.21875 0)"/>
    <use xlink:href="#DejaVuSans-4c" transform="translate(651 0)"/>
    <use xlink:href="#DejaVuSans-51" transform="translate(678.78125 0)"/>
    <use xlink:href="#DejaVuSans-57" transform="translate(742.15625 0)"/>
    <use xlink:href="#DejaVuSans-48" transform="translate(781.359375 0)"/>
    <use xlink:href="#DejaVuSans-55" transform="translate(842.890625 0)"/>
    <use xlink:href="#DejaVuSans-53" transform="translate(884 0)"/>
    <use xlink:href="#DejaVuSans-55" transform="translate(947.484375 0)"/>
    <use xlink:href="#DejaVuSans-48" transform="translate(986.390625 0)"/>
    <use xlink:href="#DejaVuSans-57" transform="translate(1047.921875 0)"/>
    <use xlink:href="#DejaVuSans-48" transform="translate(1087.125 0)"/>
    <use xlink:href="#DejaVuSans-55" transform="translate(1148.65625 0)"/>
    <use xlink:href="#DejaVuSans-56" transform="translate(1189.765625 0)"/>
    <use xlink:href="#DejaVuSans-1e" transform="translate(1241.859375 0)"/>
    <use xlink:href="#DejaVuSans-3" transform="translate(1275.546875 0)"/>
    <use xlink:href="#DejaVuSans-44" transform="translate(1307.328125 0)"/>
    <use xlink:href="#DejaVuSans-3" transform="translate(1368.609375 0)"/>
    <use xlink:href="#DejaVuSans-56" transform="translate(1400.390625 0)"/>
    <use xlink:href="#DejaVuSans-4c" transform="translate(1452.484375 0)"/>
    <use xlink:href="#DejaVuSans-51" transform="translate(1480.265625 0)"/>
    <use xlink:href="#DejaVuSans-4a" transform="translate(1543.640625 0)"/>
    <use xlink:href="#DejaVuSans-4f" transform="translate(1607.125 0)"/>
    <use xlink:href="#DejaVuSans-48" transform="translate(1634.90625 0)"/>
    <use xlink:href="#DejaVuSans-3" transform="translate(1696.4375 0)"/>
    <use xlink:href="#DejaVuSans-51" transform="translate(1728.21875 0)"/>
    <use xlink:href="#DejaVuSans-44" transform="translate(1791.59375 0)"/>
    <use xlink:href="#DejaVuSans-57" transform="translate(1852.875 0)"/>
    <use xlink:href="#DejaVuSans-4c" transform="translate(1892.078125 0)"/>
    <use xlink:href="#DejaVuSans-59" transform="translate(1919.859375 0)"/>
    <use xlink:href="#DejaVuSans-48" transform="translate(1979.046875 0)"/>
    <use xlink:href="#DejaVuSans-3" transform="translate(2040.578125 0)"/>
    <use xlink:href="#DejaVuSans-53" transform="translate(2072.359375 0)"/>
    <use xlink:href="#DejaVuSans-55" transform="translate(2135.84375 0)"/>
    <use xlink:href="#DejaVuSans-52" transform="translate(2174.75 0)"/>
    <use xlink:href="#DejaVuSans-46" transform="translate(2235.9375 0)"/>
    <use xlink:href="#DejaVuSans-48" transform="translate(2290.921875 0)"/>
    <use xlink:href="#DejaVuSans-56" transform="translate(2352.453125 0)"/>
    <use xlink:href="#DejaVuSans-56" transform="translate(2404.546875 0)"/>
    <use xlink:href="#DejaVuSans-3" transform="translate(2456.640625 0)"/>
    <use xlink:href="#DejaVuSans-47" transform="translate(2488.421875 0)"/>
    <use xlink:href="#DejaVuSans-52" transform="translate(2551.90625 0)"/>
    <use xlink:href="#DejaVuSans-48" transform="translate(2613.09375 0)"/>
    <use xlink:href="#DejaVuSans-56" transform="translate(2674.625 0)"/>
    <use xlink:href="#DejaVuSans-3" transform="translate(2726.71875 0)"/>
    <use xlink:href="#DejaVuSans-57" transform="translate(2758.5 0)"/>
    <use xlink:href="#DejaVuSans-4b" transform="translate(2797.703125 0)"/>
    <use xlink:href="#DejaVuSans-48" transform="translate(2861.078125 0)"/>
    <use xlink:href="#DejaVuSans-3" transform="translate(2922.609375 0)"/>
    <use xlink:href="#DejaVuSans-5a" transform="translate(2954.390625 0)"/>
    <use xlink:href="#DejaVuSans-4b" transform="translate(3036.171875 0)"/>
    <use xlink:href="#DejaVuSans-52" transform="translate(3099.546875 0)"/>
    <use xlink:href="#DejaVuSans-4f" transform="translate(3160.734375 0)"/>
    <use xlink:href="#DejaVuSans-48" transform="translate(3188.515625 0)"/>
    <use xlink:href="#DejaVuSans-3" transform="translate(3250.046875 0)"/>
    <use xlink:href="#DejaVuSans-4f" transform="translate(3281.828125 0)"/>
    <use xlink:href="#DejaVuSans-52" transform="translate(3309.609375 0)"/>
    <use xlink:href="#DejaVuSans-44" transform="translate(3370.796875 0)"/>
    <use xlink:href="#DejaVuSans-47" transform="translate(3432.078125 0)"/>
    <use xlink:href="#DejaVuSans-3" transform="translate(3495.5625 0)"/>
    <use xlink:href="#DejaVuSans-4c" transform="translate(3527.34375 0)"/>
    <use xlink:href="#DejaVuSans-51" transform="translate(3555.125 0)"/>
    <use xlink:href="#DejaVuSans-3" transform="translate(3618.5 0)"/>
    <use xlink:href="#DejaVuSans-1a" transform="translate(3650.28125 0)"/>
    <use xlink:href="#DejaVuSans-11" transform="translate(3713.90625 0)"/>
    <use xlink:href="#DejaVuSans-1a" transform="translate(3745.6875 0)"/>
    <use xlink:href="#DejaVuSans-3" transform="translate(3809.3125 0)"/>
    <use xlink:href="#DejaVuSans-50" transform="translate(3841.09375 0)"/>
    <use xlink:href="#DejaVuSans-56" transform="translate(3938.5 0)"/>
    <use xlink:href="#DejaVuSans-3" transform="translate(3990.59375 0)"/>
    <use xlink:href="#DejaVuSans-45" transform="translate(4022.375 0)"/>
    <use xlink:href="#DejaVuSans-48" transform="translate(4085.859375 0)"/>
    <use xlink:href="#DejaVuSans-46" transform="translate(4147.390625 0)"/>
    <use xlink:href="#DejaVuSans-44" transform="translate(4202.375 0)"/>
    <use xlink:href="#DejaVuSans-58" transform="translate(4263.65625 0)"/>
    <use xlink:href="#DejaVuSans-56" transform="translate(4327.03125 0)"/>
    <use xlink:href="#DejaVuSans-48" transform="translate(4379.125 0)"/>
    <use xlink:href="#DejaVuSans-3" transform="translate(4440.65625 0)"/>
    <use xlink:href="#DejaVuSans-55" transform="translate(4472.4375 0)"/>
    <use xlink:href="#DejaVuSans-52" transform="translate(4511.34375 0)"/>
    <use xlink:href="#DejaVuSans-5a" transform="translate(4572.53125 0)"/>
    <use xlink:href="#DejaVuSans-56" transform="translate(4654.3125 0)"/>
    <use xlink:href="#DejaVuSans-3" transform="translate(4706.40625 0)"/>
    <use xlink:href="#DejaVuSans-51" transform="translate(4738.1875 0)"/>
    <use xlink:href="#DejaVuSans-48" transform="translate(4801.5625 0)"/>
    <use xlink:href="#DejaVuSans-59" transform="translate(4863.09375 0)"/>
    <use xlink:href="#DejaVuSans-48" transform="translate(4922.28125 0)"/>
    <use xlink:href="#DejaVuSans-55" transform="translate(4983.8125 0)"/>
    <use xlink:href="#DejaVuSans-3" transform="translate(5024.921875 0)"/>
    <use xlink:href="#DejaVuSans-45" transform="translate(5056.703125 0)"/>
    <use xlink:href="#DejaVuSans-48" transform="translate(5120.1875 0)"/>
    <use xlink:href="#DejaVuSans-46" transform="translate(5181.71875 0)"/>
    <use xlink:href="#DejaVuSans-52" transform="translate(5236.703125 0)"/>
    <use xlink:href="#DejaVuSans-50" transform="translate(5297.890625 0)"/>
    <use xlink:href="#DejaVuSans-48" transform="translate(5395.296875 0)"/>
    <use xlink:href="#DejaVuSans-3" transform="translate(5456.828125 0)"/>
    <use xlink:href="#DejaVuSans-33" transform="translate(5488.609375 0)"/>
    <use xlink:href="#DejaVuSans-5c" transform="translate(5548.90625 0)"/>
    <use xlink:href="#DejaVuSans-57" transform="translate(5608.09375 0)"/>
    <use xlink:href="#DejaVuSans-4b" transform="translate(5647.296875 0)"/>
    <use xlink:href="#DejaVuSans-52" transform="translate(5710.671875 0)"/>
    <use xlink:href="#DejaVuSans-51" transform="translate(5771.859375 0)"/>
    <use xlink:href="#DejaVuSans-3" transform="translate(5835.234375 0)"/>
    <use xlink:href="#DejaVuSans-52" transform="translate(5867.015625 0)"/>
    <use xlink:href="#DejaVuSans-45" transform="translate(5928.203125 0)"/>
    <use xlink:href="#DejaVuSans-4d" transform="translate(5991.6875 0)"/>
    <use xlink:href="#DejaVuSans-48" transform="translate(6019.46875 0)"/>
    <use xlink:href="#DejaVuSans-46" transform="translate(6081 0)"/>
    <use xlink:href="#DejaVuSans-57" transform="translate(6135.984375 0)"/>
    <use xlink:href="#DejaVuSans-56" transform="translate(6175.1875 0)"/>
    <use xlink:href="#DejaVuSans-11" transform="translate(6227.28125 0)"/>
   </g>
  </g>
 </g>
 <defs>
  <clipPath id="pd552d07f7e">
   <rect x="53.136" y="67.392" width="478.224" height="176.904"/>
  </clipPath>
 </defs>
</svg>
